G04*
G04 #@! TF.GenerationSoftware,Altium Limited,Altium Designer,18.1.2 (67)*
G04*
G04 Layer_Physical_Order=2*
G04 Layer_Color=16711680*
%FSLAX25Y25*%
%MOIN*%
G70*
G01*
G75*
%ADD21C,0.03543*%
%ADD22C,0.15748*%
%ADD23C,0.07874*%
G36*
X-34252Y39130D02*
X-34231D01*
X-34226Y39129D01*
X-34213Y39130D01*
X59602Y39130D01*
Y-4484D01*
X-34225Y-4484D01*
X-34251Y-4483D01*
X-34258Y-4484D01*
X-34259D01*
X-34264Y-4485D01*
X-34321Y-4494D01*
X-34370Y-4484D01*
X-34391D01*
X-34396Y-4483D01*
X-34409Y-4484D01*
X-34753D01*
X-35506Y-4337D01*
X-36217Y-4049D01*
X-36859Y-3631D01*
X-37410Y-3097D01*
X-37848Y-2468D01*
X-38158Y-1767D01*
X-38328Y-1019D01*
X-38340Y-636D01*
X-38342Y-626D01*
Y-606D01*
X-38342Y-602D01*
X-38342Y-589D01*
Y35012D01*
X-38341Y35037D01*
X-38342Y35044D01*
Y35047D01*
X-38344Y35056D01*
X-38352Y35108D01*
X-38342Y35157D01*
Y35178D01*
X-38341Y35183D01*
X-38342Y35196D01*
Y35549D01*
X-38189Y36316D01*
X-37890Y37039D01*
X-37455Y37690D01*
X-36902Y38243D01*
X-36252Y38677D01*
X-35528Y38977D01*
X-34761Y39130D01*
X-34396D01*
X-34372Y39129D01*
X-34364Y39130D01*
X-34363D01*
X-34357Y39131D01*
X-34301Y39139D01*
X-34252Y39130D01*
D02*
G37*
%LPC*%
G36*
X10449Y35557D02*
Y31709D01*
X14297D01*
X14259Y31997D01*
X13761Y33198D01*
X12970Y34230D01*
X11939Y35021D01*
X10738Y35519D01*
X10449Y35557D01*
D02*
G37*
G36*
X8449D02*
X8160Y35519D01*
X6959Y35021D01*
X5928Y34230D01*
X5136Y33198D01*
X4639Y31997D01*
X4601Y31709D01*
X8449D01*
Y35557D01*
D02*
G37*
G36*
X-2874Y35474D02*
X-4107Y35311D01*
X-5257Y34835D01*
X-6244Y34078D01*
X-7001Y33091D01*
X-7477Y31942D01*
X-7639Y30709D01*
X-7477Y29475D01*
X-7001Y28326D01*
X-6244Y27339D01*
X-5257Y26582D01*
X-4107Y26106D01*
X-2874Y25943D01*
X-1641Y26106D01*
X-491Y26582D01*
X495Y27339D01*
X1253Y28326D01*
X1729Y29475D01*
X1891Y30709D01*
X1729Y31942D01*
X1253Y33091D01*
X495Y34078D01*
X-491Y34835D01*
X-1641Y35311D01*
X-2874Y35474D01*
D02*
G37*
G36*
X14297Y29709D02*
X10449D01*
Y25861D01*
X10738Y25899D01*
X11939Y26396D01*
X12970Y27187D01*
X13761Y28219D01*
X14259Y29420D01*
X14297Y29709D01*
D02*
G37*
G36*
X8449D02*
X4601D01*
X4639Y29420D01*
X5136Y28219D01*
X5928Y27187D01*
X6959Y26396D01*
X8160Y25899D01*
X8449Y25861D01*
Y29709D01*
D02*
G37*
G36*
X37008Y28565D02*
X36340Y28477D01*
X35717Y28220D01*
X35183Y27809D01*
X34773Y27275D01*
X34515Y26652D01*
X34427Y25984D01*
X34515Y25316D01*
X34773Y24694D01*
X35183Y24159D01*
X35717Y23749D01*
X36340Y23491D01*
X37008Y23403D01*
X37676Y23491D01*
X38298Y23749D01*
X38833Y24159D01*
X39243Y24694D01*
X39501Y25316D01*
X39589Y25984D01*
X39501Y26652D01*
X39243Y27275D01*
X38833Y27809D01*
X38298Y28220D01*
X37676Y28477D01*
X37008Y28565D01*
D02*
G37*
G36*
X-22441Y37444D02*
X-24139Y37276D01*
X-25772Y36781D01*
X-27276Y35977D01*
X-28595Y34894D01*
X-29678Y33575D01*
X-30482Y32071D01*
X-30977Y30438D01*
X-31144Y28740D01*
X-30977Y27042D01*
X-30482Y25409D01*
X-29678Y23905D01*
X-28595Y22586D01*
X-27276Y21504D01*
X-25772Y20699D01*
X-24139Y20204D01*
X-22441Y20037D01*
X-20743Y20204D01*
X-19110Y20699D01*
X-17606Y21504D01*
X-16287Y22586D01*
X-15204Y23905D01*
X-14400Y25409D01*
X-13905Y27042D01*
X-13738Y28740D01*
X-13905Y30438D01*
X-14400Y32071D01*
X-15204Y33575D01*
X-16287Y34894D01*
X-17606Y35977D01*
X-19110Y36781D01*
X-20743Y37276D01*
X-22441Y37444D01*
D02*
G37*
G36*
X-2874Y22088D02*
X-4107Y21926D01*
X-5257Y21450D01*
X-6244Y20692D01*
X-7001Y19705D01*
X-7477Y18556D01*
X-7639Y17323D01*
X-7477Y16090D01*
X-7001Y14940D01*
X-6244Y13953D01*
X-5257Y13196D01*
X-4107Y12720D01*
X-2874Y12558D01*
X-1641Y12720D01*
X-491Y13196D01*
X495Y13953D01*
X1253Y14940D01*
X1729Y16090D01*
X1891Y17323D01*
X1729Y18556D01*
X1253Y19705D01*
X495Y20692D01*
X-491Y21450D01*
X-1641Y21926D01*
X-2874Y22088D01*
D02*
G37*
G36*
X37008Y11242D02*
X36340Y11155D01*
X35717Y10897D01*
X35183Y10486D01*
X34773Y9952D01*
X34515Y9330D01*
X34427Y8661D01*
X34515Y7993D01*
X34773Y7371D01*
X35183Y6836D01*
X35717Y6426D01*
X36340Y6168D01*
X37008Y6080D01*
X37676Y6168D01*
X38298Y6426D01*
X38833Y6836D01*
X39243Y7371D01*
X39501Y7993D01*
X39589Y8661D01*
X39501Y9330D01*
X39243Y9952D01*
X38833Y10486D01*
X38298Y10897D01*
X37676Y11155D01*
X37008Y11242D01*
D02*
G37*
G36*
X9449Y8702D02*
X8215Y8540D01*
X7066Y8064D01*
X6079Y7306D01*
X5322Y6320D01*
X4846Y5170D01*
X4684Y3937D01*
X4846Y2704D01*
X5322Y1554D01*
X6079Y568D01*
X7066Y-190D01*
X8215Y-666D01*
X9449Y-828D01*
X10682Y-666D01*
X11831Y-190D01*
X12818Y568D01*
X13576Y1554D01*
X14052Y2704D01*
X14214Y3937D01*
X14052Y5170D01*
X13576Y6320D01*
X12818Y7306D01*
X11831Y8064D01*
X10682Y8540D01*
X9449Y8702D01*
D02*
G37*
G36*
X-2874D02*
X-4107Y8540D01*
X-5257Y8064D01*
X-6244Y7306D01*
X-7001Y6320D01*
X-7477Y5170D01*
X-7639Y3937D01*
X-7477Y2704D01*
X-7001Y1554D01*
X-6244Y568D01*
X-5257Y-190D01*
X-4107Y-666D01*
X-2874Y-828D01*
X-1641Y-666D01*
X-491Y-190D01*
X495Y568D01*
X1253Y1554D01*
X1729Y2704D01*
X1891Y3937D01*
X1729Y5170D01*
X1253Y6320D01*
X495Y7306D01*
X-491Y8064D01*
X-1641Y8540D01*
X-2874Y8702D01*
D02*
G37*
G36*
X-22441Y14609D02*
X-24139Y14442D01*
X-25772Y13946D01*
X-27276Y13142D01*
X-28595Y12060D01*
X-29678Y10741D01*
X-30482Y9236D01*
X-30977Y7603D01*
X-31144Y5906D01*
X-30977Y4208D01*
X-30482Y2575D01*
X-29678Y1070D01*
X-28595Y-249D01*
X-27276Y-1331D01*
X-25772Y-2135D01*
X-24139Y-2631D01*
X-22441Y-2798D01*
X-20743Y-2631D01*
X-19110Y-2135D01*
X-17606Y-1331D01*
X-16287Y-249D01*
X-15204Y1070D01*
X-14400Y2575D01*
X-13905Y4208D01*
X-13738Y5906D01*
X-13905Y7603D01*
X-14400Y9236D01*
X-15204Y10741D01*
X-16287Y12060D01*
X-17606Y13142D01*
X-19110Y13946D01*
X-20743Y14442D01*
X-22441Y14609D01*
D02*
G37*
%LPD*%
D21*
X37008Y8661D02*
D03*
Y25984D02*
D03*
D22*
X-22441Y28740D02*
D03*
Y5906D02*
D03*
D23*
X9449Y3937D02*
D03*
X-2874D02*
D03*
Y17323D02*
D03*
X9449Y30709D02*
D03*
X-2874D02*
D03*
M02*
