G04*
G04 #@! TF.GenerationSoftware,Altium Limited,Altium Designer,18.1.2 (67)*
G04*
G04 Layer_Color=16711935*
%FSLAX25Y25*%
%MOIN*%
G70*
G01*
G75*
%ADD17C,0.04143*%
%ADD18C,0.16348*%
%ADD19C,0.08474*%
G36*
X22864Y29129D02*
X22864Y29129D01*
X22864Y29129D01*
X30396Y16082D01*
Y16082D01*
X30400Y16075D01*
X29436Y15117D01*
X29436Y15117D01*
X29427Y15108D01*
X29427Y15107D01*
X29427Y15107D01*
X29427Y15106D01*
X29426Y15106D01*
X29426Y15105D01*
X29426Y15105D01*
X29799Y13751D01*
X29799Y13751D01*
X29799Y13750D01*
X29800Y13750D01*
X29800Y13749D01*
X29801Y13749D01*
X29801Y13749D01*
X31109Y13421D01*
X31117Y13419D01*
Y11820D01*
X29801Y11490D01*
X29801Y11490D01*
X29800Y11490D01*
X29800Y11490D01*
X29799Y11489D01*
X29799Y11489D01*
X29799Y11488D01*
X29434Y10127D01*
X29434Y10126D01*
X29434Y10126D01*
X29434Y10125D01*
X29434Y10125D01*
X29435Y10124D01*
X29435Y10124D01*
X30411Y9180D01*
X29612Y7795D01*
X28306Y8168D01*
X28305Y8168D01*
X28305Y8168D01*
X28304Y8168D01*
X28304Y8168D01*
X28303Y8168D01*
X28303Y8167D01*
X27306Y7171D01*
X27306Y7170D01*
X27306Y7170D01*
X27306Y7169D01*
X27305Y7169D01*
X27306Y7168D01*
X27305Y7168D01*
X27679Y5862D01*
X26294Y5063D01*
X25350Y6039D01*
X25349Y6039D01*
X25349Y6039D01*
X25348Y6039D01*
X25348Y6039D01*
X25347Y6039D01*
X25347Y6039D01*
X23986Y5675D01*
X23985Y5674D01*
X23985Y5674D01*
X23984Y5674D01*
X23984Y5673D01*
X23984Y5673D01*
X23983Y5672D01*
X23656Y4363D01*
Y4363D01*
X23654Y4355D01*
X22055D01*
X21725Y5672D01*
X21725Y5673D01*
X21725Y5673D01*
X21724Y5674D01*
X21724Y5674D01*
X21723Y5674D01*
X21723Y5675D01*
X20362Y6039D01*
X20361Y6039D01*
X20361Y6039D01*
X20360Y6039D01*
X20359Y6039D01*
X20359Y6039D01*
X20359Y6039D01*
X19414Y5063D01*
X18030Y5862D01*
X18403Y7168D01*
X18403Y7168D01*
X18403Y7169D01*
X18403Y7169D01*
X18403Y7170D01*
X18402Y7170D01*
X18402Y7171D01*
X17406Y8167D01*
X17405Y8168D01*
X17405Y8168D01*
X17404Y8168D01*
X17403Y8168D01*
X17403Y8168D01*
X17403Y8168D01*
X16097Y7795D01*
X15298Y9180D01*
X16274Y10124D01*
X16274Y10124D01*
X16274Y10125D01*
X16274Y10125D01*
X16274Y10126D01*
X16274Y10126D01*
X16274Y10127D01*
X15910Y11488D01*
X15909Y11489D01*
X15909Y11489D01*
X15909Y11490D01*
X15908Y11490D01*
X15908Y11490D01*
X15907Y11490D01*
X14598Y11818D01*
X14590Y11820D01*
Y13419D01*
X15907Y13749D01*
X15908Y13749D01*
X15908Y13749D01*
X15909Y13750D01*
X15909Y13750D01*
X15909Y13751D01*
X15910Y13751D01*
X16274Y15112D01*
X16274Y15113D01*
X16275Y15113D01*
X16274Y15114D01*
X16274Y15115D01*
X16274Y15115D01*
X16274Y15115D01*
X15297Y16060D01*
X15313Y16082D01*
X15313Y16082D01*
X15313Y16082D01*
X22845Y29129D01*
Y29129D01*
X22845Y29129D01*
X22854Y29149D01*
X22864Y29129D01*
D02*
G37*
%LPC*%
G36*
X22845Y26886D02*
X22845Y26886D01*
X22845Y26886D01*
X22833Y26885D01*
X22833Y26885D01*
X22833Y26885D01*
X22822Y26884D01*
X22822Y26884D01*
X22822Y26884D01*
X22811Y26883D01*
X22811Y26883D01*
X22811D01*
X22799Y26880D01*
X22799Y26880D01*
X22799Y26880D01*
X22788Y26878D01*
X22788Y26878D01*
X22787D01*
X22776Y26875D01*
X22775Y26875D01*
X22775D01*
X22763Y26871D01*
X22763Y26871D01*
X22763D01*
X22750Y26867D01*
X22750Y26867D01*
X22750D01*
X22737Y26862D01*
X22737Y26862D01*
X22737D01*
X22723Y26857D01*
X22723Y26857D01*
X22723D01*
X22708Y26851D01*
Y26851D01*
X22708D01*
X22693Y26844D01*
X22693Y26844D01*
X22693D01*
X22677Y26836D01*
X22677Y26836D01*
X22677D01*
X22660Y26828D01*
X22660Y26828D01*
X22660D01*
X22643Y26818D01*
X22643D01*
X22643Y26818D01*
X22625Y26808D01*
X22625Y26808D01*
X22625D01*
X22618Y26805D01*
X21954Y26421D01*
Y26421D01*
X21954D01*
X21937Y26411D01*
X21937D01*
X21937Y26411D01*
X21921Y26401D01*
X21921Y26401D01*
X21921D01*
X21906Y26392D01*
X21906Y26392D01*
X21906D01*
X21893Y26383D01*
Y26383D01*
X21892Y26382D01*
X21880Y26373D01*
X21880Y26373D01*
X21868Y26364D01*
Y26364D01*
X21868D01*
X21856Y26356D01*
X21856Y26356D01*
X21856D01*
X21845Y26347D01*
X21845Y26347D01*
X21845Y26347D01*
X21835Y26338D01*
X21835Y26338D01*
X21835D01*
X21826Y26330D01*
X21826Y26330D01*
X21826Y26330D01*
X21817Y26321D01*
X21817Y26321D01*
X21817D01*
X21809Y26313D01*
Y26313D01*
X21809D01*
X21801Y26304D01*
X21801Y26304D01*
X21801Y26304D01*
X21794Y26295D01*
X21794Y26295D01*
X21794Y26295D01*
X21787Y26287D01*
X21787Y26287D01*
X21787Y26287D01*
X21781Y26278D01*
X21781Y26278D01*
X21781Y26278D01*
X21775Y26268D01*
X21775Y26268D01*
X21775Y26268D01*
X21769Y26259D01*
X21769Y26259D01*
X21769Y26259D01*
X21764Y26248D01*
X21764Y26248D01*
X21764Y26248D01*
X21759Y26236D01*
Y26236D01*
X21757Y26230D01*
X21755Y26222D01*
X21754Y26222D01*
X21754Y26218D01*
X21754Y26218D01*
X21751Y26206D01*
X21750Y26202D01*
X21750Y26202D01*
X21750Y26202D01*
X21749Y26189D01*
X21749Y26189D01*
X21749Y26189D01*
X21749Y26176D01*
X21749Y26176D01*
X21749Y26176D01*
X21749Y26163D01*
X21749Y26163D01*
X21749Y26163D01*
X21750Y26151D01*
X21750Y26151D01*
Y26151D01*
X21752Y26138D01*
X21752Y26138D01*
X21752Y26138D01*
X21754Y26126D01*
X21754Y26126D01*
Y26126D01*
X21757Y26113D01*
X21757Y26113D01*
Y26113D01*
X21760Y26100D01*
X21760Y26100D01*
X21760Y26100D01*
X21764Y26087D01*
X21764Y26087D01*
Y26087D01*
X21769Y26073D01*
X21769Y26073D01*
Y26073D01*
X21774Y26059D01*
X21774Y26059D01*
Y26059D01*
X21780Y26044D01*
X21780Y26044D01*
Y26044D01*
X21786Y26028D01*
Y26028D01*
X21794Y26012D01*
X21794Y26012D01*
Y26012D01*
X21802Y25995D01*
X21802D01*
Y25995D01*
X21811Y25978D01*
X21811Y25978D01*
Y25978D01*
X21821Y25959D01*
X21821Y25959D01*
Y25959D01*
X21830Y25943D01*
X21830D01*
Y25943D01*
X22348Y25046D01*
Y25046D01*
X22358Y25029D01*
X22358Y25029D01*
Y25029D01*
X22368Y25013D01*
X22368Y25013D01*
X22377Y24998D01*
X22377Y24998D01*
Y24998D01*
X22387Y24984D01*
X22387D01*
Y24984D01*
X22396Y24971D01*
X22396Y24971D01*
Y24970D01*
X22405Y24958D01*
X22405Y24958D01*
X22414Y24947D01*
X22414Y24947D01*
Y24947D01*
X22423Y24936D01*
X22423Y24936D01*
X22423Y24936D01*
X22432Y24925D01*
X22432Y24925D01*
Y24925D01*
X22440Y24916D01*
X22440Y24916D01*
X22440Y24916D01*
X22449Y24907D01*
X22449Y24907D01*
X22449Y24907D01*
X22457Y24899D01*
X22457Y24899D01*
X22457Y24898D01*
X22465Y24891D01*
X22465Y24891D01*
X22466Y24891D01*
X22474Y24883D01*
X22474Y24883D01*
X22474Y24883D01*
X22482Y24877D01*
X22482D01*
X22482Y24877D01*
X22491Y24870D01*
X22491Y24870D01*
X22491Y24870D01*
X22500Y24864D01*
X22500Y24864D01*
X22500Y24864D01*
X22509Y24858D01*
X22509Y24858D01*
X22509Y24858D01*
X22518Y24853D01*
X22518D01*
X22518Y24853D01*
X22529Y24848D01*
X22529D01*
X22529Y24848D01*
X22540Y24844D01*
X22540D01*
X22540Y24844D01*
X22548Y24841D01*
X22549D01*
X22565Y24837D01*
X22565Y24837D01*
X22565Y24837D01*
X22578Y24836D01*
X22578D01*
X22578Y24836D01*
X22590Y24835D01*
X22591Y24835D01*
X22591Y24835D01*
X22603Y24835D01*
X22603Y24835D01*
X22603Y24835D01*
X22614Y24836D01*
X22614Y24836D01*
X22614Y24836D01*
X22626Y24837D01*
X22626Y24837D01*
X22626Y24837D01*
X22638Y24839D01*
X22638Y24839D01*
X22638Y24839D01*
X22650Y24841D01*
X22650Y24841D01*
X22650Y24841D01*
X22663Y24844D01*
X22663Y24844D01*
X22663D01*
X22675Y24848D01*
X22675Y24848D01*
X22676D01*
X22689Y24852D01*
Y24852D01*
X22689D01*
X22702Y24857D01*
X22702Y24857D01*
X22702D01*
X22716Y24862D01*
X22716Y24862D01*
X22716D01*
X22731Y24868D01*
X22731Y24868D01*
X22731D01*
X22746Y24874D01*
X22746Y24874D01*
X22746D01*
X22762Y24882D01*
Y24882D01*
X22762Y24882D01*
X22779Y24890D01*
X22779Y24890D01*
X22779D01*
X22796Y24899D01*
X22796D01*
X22796Y24899D01*
X22815Y24909D01*
X22815D01*
X22824Y24915D01*
X22824D01*
X23488Y25298D01*
X23488Y25298D01*
X23488D01*
X23505Y25308D01*
X23505D01*
X23521Y25318D01*
X23521Y25318D01*
X23521D01*
X23536Y25328D01*
X23536Y25328D01*
X23536D01*
X23550Y25337D01*
Y25337D01*
X23550D01*
X23563Y25346D01*
Y25346D01*
X23563D01*
X23575Y25354D01*
X23575Y25355D01*
X23575Y25355D01*
X23586Y25363D01*
X23586Y25363D01*
X23586Y25363D01*
X23596Y25372D01*
X23596Y25372D01*
X23597D01*
X23606Y25380D01*
X23606Y25380D01*
X23607D01*
X23616Y25388D01*
X23616Y25388D01*
X23616Y25388D01*
X23624Y25396D01*
X23624Y25396D01*
X23625D01*
X23632Y25404D01*
X23633Y25405D01*
X23633Y25405D01*
X23640Y25412D01*
X23640Y25413D01*
X23640Y25413D01*
X23647Y25421D01*
X23647Y25421D01*
X23647D01*
X23654Y25429D01*
X23654Y25429D01*
X23654Y25429D01*
X23660Y25437D01*
X23660Y25437D01*
X23660Y25437D01*
X23666Y25445D01*
X23666Y25445D01*
X23666Y25445D01*
X23672Y25454D01*
X23672Y25454D01*
X23672Y25454D01*
X23677Y25463D01*
X23677Y25463D01*
X23677Y25463D01*
X23681Y25472D01*
Y25473D01*
X23682Y25473D01*
X23686Y25483D01*
Y25483D01*
X23686Y25483D01*
X23690Y25495D01*
Y25495D01*
X23690Y25495D01*
X23691Y25501D01*
X23691Y25501D01*
X23694Y25512D01*
X23694Y25515D01*
X23694Y25515D01*
X23694Y25515D01*
X23695Y25527D01*
X23695Y25527D01*
X23695Y25527D01*
X23696Y25539D01*
X23696Y25539D01*
X23696Y25539D01*
X23696D01*
X23696Y25540D01*
X23695Y25550D01*
X23696Y25550D01*
X23695Y25562D01*
X23695Y25562D01*
X23695Y25562D01*
X23693Y25573D01*
X23693Y25573D01*
X23693Y25573D01*
X23692Y25585D01*
X23692Y25585D01*
X23692Y25585D01*
X23689Y25597D01*
X23689Y25597D01*
X23689Y25597D01*
X23686Y25609D01*
X23686Y25609D01*
Y25609D01*
X23683Y25622D01*
X23683Y25622D01*
Y25622D01*
X23679Y25634D01*
X23679Y25634D01*
Y25635D01*
X23674Y25648D01*
X23674Y25648D01*
Y25648D01*
X23669Y25662D01*
Y25662D01*
Y25662D01*
X23663Y25676D01*
X23663Y25676D01*
Y25676D01*
X23656Y25691D01*
X23656Y25691D01*
Y25691D01*
X23649Y25707D01*
X23649D01*
Y25707D01*
X23641Y25724D01*
X23641Y25724D01*
Y25724D01*
X23632Y25741D01*
X23632Y25741D01*
Y25741D01*
X23622Y25759D01*
X23622D01*
Y25759D01*
X23613Y25776D01*
X23613D01*
Y25776D01*
X23095Y26674D01*
X23095D01*
Y26674D01*
X23084Y26691D01*
X23084Y26691D01*
X23075Y26707D01*
X23075Y26707D01*
Y26707D01*
X23065Y26722D01*
X23065D01*
Y26722D01*
X23056Y26736D01*
X23055D01*
X23055Y26736D01*
X23046Y26750D01*
X23046Y26750D01*
X23046Y26750D01*
X23037Y26762D01*
X23037Y26762D01*
Y26762D01*
X23028Y26774D01*
Y26774D01*
X23028Y26774D01*
X23020Y26784D01*
X23020Y26784D01*
Y26784D01*
X23011Y26794D01*
X23011D01*
X23011Y26794D01*
X23003Y26804D01*
X23003Y26804D01*
X23003Y26804D01*
X22995Y26813D01*
X22995Y26813D01*
X22995Y26813D01*
X22986Y26821D01*
X22986Y26821D01*
Y26821D01*
X22978Y26829D01*
X22978Y26829D01*
X22978Y26829D01*
X22970Y26836D01*
X22970Y26836D01*
X22970Y26836D01*
X22961Y26843D01*
X22961Y26843D01*
X22961Y26843D01*
X22953Y26850D01*
X22953D01*
X22953Y26850D01*
X22944Y26856D01*
X22944Y26856D01*
Y26856D01*
X22936Y26861D01*
X22936Y26861D01*
X22936Y26861D01*
X22927Y26866D01*
X22927D01*
X22927Y26866D01*
X22917Y26871D01*
X22917Y26871D01*
X22917Y26871D01*
X22907Y26876D01*
X22907D01*
X22906Y26876D01*
X22896Y26880D01*
X22896D01*
X22896Y26880D01*
X22881Y26883D01*
Y26883D01*
X22880Y26883D01*
X22868Y26885D01*
X22868Y26885D01*
X22868Y26885D01*
X22856Y26886D01*
X22856Y26886D01*
X22856Y26886D01*
X22845Y26886D01*
D02*
G37*
G36*
X24928Y23278D02*
X24928Y23278D01*
X24928Y23278D01*
X24917Y23277D01*
X24917Y23277D01*
X24917D01*
X24905Y23276D01*
X24905Y23276D01*
X24905Y23276D01*
X24894Y23275D01*
X24894Y23275D01*
X24894D01*
X24883Y23273D01*
X24882Y23273D01*
X24882D01*
X24871Y23270D01*
X24871Y23270D01*
X24871D01*
X24859Y23267D01*
X24859Y23267D01*
X24859Y23267D01*
X24846Y23263D01*
X24846Y23263D01*
X24846D01*
X24833Y23259D01*
X24833Y23259D01*
X24833D01*
X24820Y23254D01*
X24820Y23254D01*
X24820D01*
X24806Y23249D01*
X24806D01*
X24792Y23243D01*
X24792Y23243D01*
X24791D01*
X24776Y23236D01*
X24776Y23236D01*
X24776D01*
X24760Y23228D01*
X24760Y23228D01*
X24760D01*
X24744Y23220D01*
X24744Y23220D01*
X24744D01*
X24726Y23211D01*
X24726Y23211D01*
X24726D01*
X24708Y23201D01*
X24708D01*
X24701Y23197D01*
X24701D01*
X24037Y22813D01*
X24037D01*
X24020Y22803D01*
Y22803D01*
X24020D01*
X24004Y22794D01*
X24004Y22794D01*
X24004D01*
X23989Y22784D01*
X23989Y22784D01*
X23989D01*
X23976Y22775D01*
X23976Y22775D01*
X23976D01*
X23963Y22765D01*
X23963Y22765D01*
X23963Y22765D01*
X23950Y22757D01*
Y22757D01*
X23950D01*
X23939Y22748D01*
X23939Y22748D01*
X23939Y22748D01*
X23928Y22739D01*
X23928Y22739D01*
X23928Y22739D01*
X23918Y22730D01*
X23918Y22730D01*
X23918Y22730D01*
X23909Y22722D01*
X23909Y22722D01*
X23909D01*
X23900Y22713D01*
Y22713D01*
X23900Y22713D01*
X23892Y22705D01*
X23892Y22705D01*
X23892Y22705D01*
X23884Y22696D01*
Y22696D01*
X23884Y22696D01*
X23877Y22687D01*
X23877Y22687D01*
X23877D01*
X23870Y22679D01*
X23870Y22679D01*
X23870Y22679D01*
X23864Y22670D01*
X23864Y22670D01*
X23864Y22670D01*
X23858Y22660D01*
X23858Y22660D01*
X23858Y22660D01*
X23852Y22651D01*
Y22651D01*
X23852Y22650D01*
X23847Y22640D01*
Y22640D01*
X23847Y22640D01*
X23842Y22628D01*
Y22628D01*
X23839Y22622D01*
X23837Y22614D01*
X23837Y22614D01*
X23836Y22610D01*
X23836Y22610D01*
X23834Y22598D01*
X23833Y22594D01*
X23833Y22594D01*
X23833Y22594D01*
X23832Y22581D01*
X23832Y22581D01*
X23832Y22581D01*
X23832Y22568D01*
X23832Y22568D01*
X23832Y22568D01*
X23832Y22555D01*
X23832Y22555D01*
X23832Y22555D01*
X23833Y22543D01*
X23833Y22543D01*
Y22543D01*
X23835Y22531D01*
X23835Y22530D01*
X23835Y22530D01*
X23837Y22518D01*
X23837Y22518D01*
Y22518D01*
X23840Y22505D01*
X23840Y22505D01*
Y22505D01*
X23843Y22492D01*
Y22492D01*
Y22492D01*
X23847Y22479D01*
X23847Y22479D01*
X23847Y22479D01*
X23852Y22465D01*
Y22465D01*
Y22465D01*
X23857Y22451D01*
X23857Y22451D01*
Y22451D01*
X23863Y22436D01*
X23863D01*
Y22436D01*
X23869Y22420D01*
X23869Y22420D01*
Y22420D01*
X23877Y22404D01*
X23877Y22404D01*
Y22404D01*
X23885Y22388D01*
X23885Y22388D01*
Y22388D01*
X23894Y22370D01*
X23894Y22370D01*
Y22370D01*
X23904Y22351D01*
X23904Y22351D01*
Y22351D01*
X23913Y22335D01*
Y22335D01*
X24431Y21438D01*
X24431Y21438D01*
X24441Y21421D01*
X24441D01*
X24441Y21421D01*
X24451Y21405D01*
Y21405D01*
X24451Y21405D01*
X24460Y21390D01*
Y21390D01*
Y21390D01*
X24470Y21376D01*
X24470D01*
Y21376D01*
X24479Y21362D01*
X24479Y21362D01*
X24479Y21362D01*
X24488Y21350D01*
X24488Y21350D01*
X24488Y21350D01*
X24497Y21339D01*
X24497Y21339D01*
Y21339D01*
X24506Y21328D01*
X24506D01*
X24506Y21328D01*
X24514Y21317D01*
X24514Y21317D01*
X24514Y21317D01*
X24523Y21308D01*
X24523Y21308D01*
X24523Y21308D01*
X24532Y21299D01*
X24532Y21299D01*
Y21299D01*
X24540Y21291D01*
X24540D01*
X24540Y21290D01*
X24548Y21283D01*
X24548Y21283D01*
X24548Y21283D01*
X24557Y21275D01*
X24557Y21275D01*
X24557Y21275D01*
X24565Y21268D01*
X24565Y21268D01*
X24565Y21268D01*
X24574Y21262D01*
X24574Y21262D01*
Y21262D01*
X24583Y21256D01*
X24583D01*
X24583Y21256D01*
X24592Y21250D01*
X24592D01*
X24592Y21250D01*
X24601Y21245D01*
X24601Y21245D01*
X24601Y21245D01*
X24612Y21240D01*
X24612Y21240D01*
X24612Y21240D01*
X24623Y21236D01*
X24624D01*
X24624Y21236D01*
X24631Y21233D01*
X24632Y21233D01*
X24647Y21229D01*
Y21229D01*
X24648Y21229D01*
X24661Y21228D01*
X24661D01*
X24661Y21228D01*
X24673Y21227D01*
X24673Y21227D01*
X24673Y21227D01*
X24685Y21227D01*
X24685Y21227D01*
X24685Y21227D01*
X24697Y21228D01*
X24697Y21228D01*
X24697D01*
X24709Y21229D01*
X24709Y21229D01*
X24709Y21229D01*
X24721Y21231D01*
X24721Y21231D01*
X24721Y21231D01*
X24733Y21233D01*
X24733Y21233D01*
X24733D01*
X24745Y21236D01*
X24745Y21236D01*
X24745Y21236D01*
X24758Y21240D01*
X24758Y21240D01*
X24758Y21240D01*
X24771Y21244D01*
X24771Y21244D01*
X24771Y21244D01*
X24784Y21248D01*
X24784Y21248D01*
X24785D01*
X24799Y21254D01*
X24799Y21254D01*
X24799D01*
X24813Y21260D01*
X24813Y21260D01*
X24813D01*
X24828Y21266D01*
X24828Y21266D01*
X24828D01*
X24845Y21274D01*
X24845D01*
X24861Y21282D01*
X24861Y21282D01*
X24861Y21282D01*
X24879Y21291D01*
Y21291D01*
X24879Y21291D01*
X24897Y21301D01*
X24897D01*
X24907Y21307D01*
X24907D01*
X25571Y21690D01*
Y21690D01*
X25571D01*
X25588Y21700D01*
X25588D01*
X25588Y21700D01*
X25604Y21710D01*
Y21710D01*
X25604D01*
X25619Y21720D01*
X25619Y21720D01*
Y21720D01*
X25633Y21729D01*
X25633Y21729D01*
X25633D01*
X25646Y21738D01*
X25646Y21738D01*
X25646D01*
X25658Y21746D01*
X25658Y21746D01*
X25658Y21747D01*
X25669Y21755D01*
Y21755D01*
X25669Y21755D01*
X25679Y21764D01*
X25679Y21764D01*
X25680D01*
X25689Y21772D01*
X25689Y21772D01*
X25689D01*
X25699Y21780D01*
X25699Y21780D01*
X25699Y21780D01*
X25707Y21788D01*
Y21788D01*
X25707Y21788D01*
X25716Y21796D01*
X25716Y21797D01*
X25716D01*
X25723Y21804D01*
X25723Y21805D01*
X25723Y21805D01*
X25730Y21813D01*
X25730Y21813D01*
X25730Y21813D01*
X25737Y21821D01*
X25737Y21821D01*
X25737Y21821D01*
X25743Y21829D01*
X25743Y21829D01*
X25743Y21829D01*
X25749Y21837D01*
X25749Y21837D01*
X25749Y21837D01*
X25755Y21846D01*
X25755Y21846D01*
X25755Y21846D01*
X25760Y21855D01*
Y21855D01*
X25760Y21855D01*
X25765Y21865D01*
X25765Y21865D01*
X25765Y21865D01*
X25769Y21875D01*
Y21875D01*
X25769Y21875D01*
X25773Y21887D01*
Y21887D01*
X25773Y21887D01*
X25774Y21893D01*
X25774Y21893D01*
X25777Y21904D01*
X25777Y21907D01*
X25777Y21907D01*
X25777Y21907D01*
X25778Y21919D01*
X25778Y21919D01*
X25778Y21919D01*
X25779Y21931D01*
X25779Y21931D01*
X25779Y21931D01*
X25779D01*
X25779Y21932D01*
X25778Y21942D01*
X25778Y21942D01*
X25778Y21954D01*
X25778Y21954D01*
X25778Y21954D01*
X25776Y21965D01*
X25776Y21965D01*
X25776Y21965D01*
X25774Y21977D01*
X25774Y21977D01*
X25774Y21977D01*
X25772Y21989D01*
X25772Y21989D01*
Y21989D01*
X25769Y22001D01*
X25769Y22001D01*
Y22001D01*
X25766Y22014D01*
X25766Y22014D01*
X25766Y22014D01*
X25762Y22026D01*
X25762Y22026D01*
Y22027D01*
X25757Y22040D01*
X25757Y22040D01*
Y22040D01*
X25752Y22054D01*
X25752Y22054D01*
Y22054D01*
X25746Y22068D01*
X25746Y22068D01*
Y22068D01*
X25739Y22083D01*
X25739Y22083D01*
Y22083D01*
X25732Y22099D01*
X25732Y22099D01*
Y22099D01*
X25724Y22116D01*
X25724D01*
Y22116D01*
X25715Y22133D01*
X25715Y22133D01*
X25715Y22133D01*
X25705Y22151D01*
X25705Y22151D01*
Y22151D01*
X25696Y22168D01*
Y22168D01*
X25178Y23066D01*
X25178Y23066D01*
Y23066D01*
X25167Y23083D01*
X25167D01*
Y23083D01*
X25157Y23099D01*
X25157Y23099D01*
X25157Y23099D01*
X25148Y23114D01*
X25148D01*
X25148Y23114D01*
X25139Y23128D01*
X25139Y23128D01*
X25129Y23141D01*
X25129Y23141D01*
X25120Y23154D01*
X25120Y23154D01*
X25112Y23165D01*
X25112Y23165D01*
Y23165D01*
X25103Y23176D01*
X25103Y23176D01*
Y23176D01*
X25094Y23186D01*
X25094Y23186D01*
X25094Y23186D01*
X25086Y23196D01*
X25086Y23196D01*
Y23196D01*
X25078Y23205D01*
X25078Y23205D01*
X25078Y23205D01*
X25069Y23213D01*
X25069Y23213D01*
X25069Y23213D01*
X25061Y23221D01*
X25061Y23221D01*
X25061Y23221D01*
X25053Y23228D01*
X25053D01*
X25053Y23228D01*
X25044Y23235D01*
X25044Y23235D01*
X25044Y23235D01*
X25036Y23242D01*
X25036D01*
X25036Y23242D01*
X25028Y23247D01*
X25027D01*
X25027Y23248D01*
X25019Y23253D01*
X25019Y23253D01*
X25019Y23253D01*
X25010Y23258D01*
X25010Y23258D01*
X25010Y23258D01*
X25000Y23263D01*
X25000Y23263D01*
X25000Y23263D01*
X24990Y23268D01*
X24990D01*
X24990Y23268D01*
X24979Y23271D01*
X24978D01*
Y23271D01*
X24963Y23275D01*
X24963Y23275D01*
X24963Y23275D01*
X24951Y23277D01*
X24951Y23277D01*
X24951Y23277D01*
X24939Y23278D01*
X24939Y23278D01*
X24939Y23278D01*
X24928Y23278D01*
D02*
G37*
G36*
X22968Y24525D02*
X22966Y24525D01*
X22731Y24389D01*
X22729Y24387D01*
X22730Y24385D01*
X22730Y24385D01*
X23419Y23190D01*
X23421Y23189D01*
X23423Y23189D01*
X24683Y23916D01*
X24684Y23918D01*
X24684Y23920D01*
X24520Y24205D01*
Y24205D01*
X24518Y24207D01*
X24516Y24206D01*
X23494Y23617D01*
X22970Y24523D01*
Y24523D01*
X22968Y24525D01*
D02*
G37*
G36*
X26461Y20840D02*
X24798Y20811D01*
X24797Y20811D01*
X24796Y20811D01*
X24796Y20810D01*
X24796Y20810D01*
X24796Y20809D01*
X24795Y20809D01*
X24795Y20808D01*
X24795Y20808D01*
X24795Y20807D01*
X24795Y20807D01*
X24979Y20489D01*
X24979Y20488D01*
X24979Y20488D01*
X24980Y20488D01*
X24981Y20487D01*
X24981Y20487D01*
X24982Y20487D01*
X25341Y20502D01*
X25782Y19738D01*
X25589Y19434D01*
X25589Y19434D01*
X25589Y19433D01*
X25589Y19433D01*
X25589Y19432D01*
X25589Y19432D01*
X25589Y19431D01*
X25752Y19149D01*
X25753Y19149D01*
X25753Y19148D01*
X25754Y19148D01*
X25754Y19148D01*
X25755Y19148D01*
X25756Y19148D01*
X25756Y19148D01*
X25756Y19148D01*
X25757Y19148D01*
X25757Y19149D01*
X26620Y20564D01*
X26620Y20564D01*
X26620Y20564D01*
X26620Y20565D01*
X26621Y20566D01*
X26620Y20566D01*
X26620Y20567D01*
X26464Y20838D01*
X26463Y20838D01*
X26463Y20839D01*
X26462Y20839D01*
X26462Y20840D01*
X26461Y20839D01*
X26461Y20840D01*
D02*
G37*
G36*
X28661Y17403D02*
X28661Y17403D01*
X28661Y17403D01*
X28644Y17403D01*
X28644Y17403D01*
X28644Y17403D01*
X28628Y17401D01*
X28628Y17401D01*
X28628Y17401D01*
X28612Y17399D01*
X28612Y17399D01*
X28612Y17399D01*
X28596Y17396D01*
X28596Y17396D01*
X28596D01*
X28580Y17392D01*
X28580Y17392D01*
X28580D01*
X28563Y17387D01*
X28563Y17387D01*
X28563D01*
X28547Y17382D01*
X28547Y17382D01*
X28547D01*
X28530Y17376D01*
X28529D01*
X28512Y17369D01*
X28512Y17369D01*
X28512D01*
X28493Y17361D01*
X28493Y17361D01*
X28493D01*
X28474Y17352D01*
X28474Y17352D01*
X28474D01*
X28455Y17342D01*
X28455Y17342D01*
X28454D01*
X28434Y17331D01*
X28434Y17331D01*
X28434Y17331D01*
X28412Y17319D01*
X28412Y17319D01*
X28380Y17300D01*
X28379Y17299D01*
X28378Y17299D01*
X28378Y17299D01*
X28378Y17298D01*
X28378Y17297D01*
X28378Y17297D01*
X28471Y16963D01*
X28472Y16963D01*
X28472Y16962D01*
X28472Y16962D01*
X28473Y16961D01*
X28473Y16961D01*
X28473Y16961D01*
X28474Y16961D01*
X28475Y16961D01*
X28475Y16961D01*
X28476Y16961D01*
X28649Y17061D01*
X29182Y16138D01*
X28857Y15950D01*
X28348Y16831D01*
X28348D01*
Y16831D01*
X28335Y16852D01*
X28335D01*
Y16852D01*
X28324Y16871D01*
X28324D01*
X28324Y16871D01*
X28312Y16889D01*
X28312Y16889D01*
Y16889D01*
X28301Y16906D01*
X28301Y16906D01*
Y16906D01*
X28290Y16921D01*
X28290Y16921D01*
X28290Y16921D01*
X28279Y16936D01*
X28279Y16936D01*
X28279Y16936D01*
X28268Y16950D01*
X28268D01*
Y16950D01*
X28258Y16962D01*
X28258Y16962D01*
Y16963D01*
X28247Y16975D01*
X28247D01*
X28247Y16975D01*
X28236Y16986D01*
X28236Y16986D01*
X28236Y16986D01*
X28225Y16997D01*
X28225Y16997D01*
X28225Y16997D01*
X28215Y17007D01*
X28215Y17007D01*
X28215Y17007D01*
X28204Y17016D01*
X28204Y17016D01*
X28204Y17016D01*
X28193Y17025D01*
X28193D01*
X28193Y17025D01*
X28182Y17033D01*
X28182Y17033D01*
X28182Y17033D01*
X28171Y17041D01*
X28171Y17041D01*
X28170Y17041D01*
X28159Y17048D01*
X28159D01*
X28158Y17049D01*
X28146Y17055D01*
X28146D01*
X28146Y17055D01*
X28131Y17062D01*
X28131D01*
X28131Y17062D01*
X28114Y17067D01*
X28114Y17068D01*
X28111Y17069D01*
X28111D01*
X28111Y17069D01*
X28110Y17069D01*
X28093Y17072D01*
X28092Y17073D01*
X28077Y17075D01*
X28077Y17075D01*
X28077Y17075D01*
X28062Y17075D01*
X28062Y17075D01*
X28062Y17075D01*
X28048Y17075D01*
X28048Y17075D01*
X28048Y17075D01*
X28034Y17075D01*
X28034D01*
X28020Y17073D01*
X28020Y17073D01*
X28020Y17073D01*
X28006Y17071D01*
X28006Y17071D01*
X28006Y17071D01*
X27991Y17068D01*
X27991Y17068D01*
X27991Y17068D01*
X27977Y17065D01*
X27977Y17064D01*
X27977D01*
X27961Y17061D01*
X27961Y17060D01*
X27961D01*
X27946Y17056D01*
X27945Y17056D01*
X27945D01*
X27929Y17050D01*
X27929Y17050D01*
X27929D01*
X27913Y17044D01*
X27912Y17044D01*
X27912D01*
X27895Y17037D01*
X27895Y17037D01*
X27895D01*
X27877Y17029D01*
X27877Y17029D01*
X27877D01*
X27858Y17020D01*
X27858Y17020D01*
X27858D01*
X27838Y17011D01*
X27838Y17010D01*
X27838D01*
X27817Y17000D01*
X27817Y17000D01*
X27817Y17000D01*
X27795Y16988D01*
X27795Y16988D01*
X27795D01*
X27776Y16977D01*
X27776D01*
X27564Y16855D01*
Y16855D01*
X27543Y16843D01*
X27543Y16842D01*
X27543D01*
X27524Y16831D01*
X27524Y16831D01*
X27524D01*
X27506Y16819D01*
X27506D01*
X27489Y16808D01*
Y16808D01*
X27489D01*
X27473Y16797D01*
X27473Y16797D01*
X27473D01*
X27459Y16786D01*
X27458Y16786D01*
X27458Y16786D01*
X27445Y16775D01*
X27445Y16775D01*
X27445Y16775D01*
X27432Y16765D01*
Y16765D01*
X27432Y16765D01*
X27420Y16755D01*
X27419Y16755D01*
X27419Y16755D01*
X27408Y16744D01*
X27408Y16744D01*
X27408Y16744D01*
X27398Y16734D01*
X27398Y16734D01*
X27398Y16734D01*
X27388Y16724D01*
X27388Y16724D01*
X27387Y16724D01*
X27378Y16714D01*
X27378Y16714D01*
X27378D01*
X27369Y16704D01*
X27369Y16704D01*
X27369Y16704D01*
X27361Y16694D01*
X27361Y16694D01*
X27361D01*
X27354Y16684D01*
X27354Y16684D01*
X27354Y16684D01*
X27346Y16674D01*
X27346Y16674D01*
X27346Y16673D01*
X27340Y16663D01*
X27340Y16663D01*
X27340Y16663D01*
X27333Y16651D01*
Y16651D01*
X27333Y16651D01*
X27328Y16639D01*
X27328Y16639D01*
X27327Y16639D01*
X27322Y16626D01*
Y16626D01*
X27322Y16626D01*
X27318Y16611D01*
X27318Y16611D01*
X27318Y16611D01*
X27313Y16590D01*
X27314Y16590D01*
X27313Y16590D01*
X27312Y16573D01*
X27312Y16573D01*
X27312Y16573D01*
X27311Y16557D01*
X27311Y16557D01*
X27311Y16557D01*
X27312Y16542D01*
X27312Y16542D01*
X27312Y16541D01*
X27313Y16526D01*
X27313Y16526D01*
X27313Y16526D01*
X27315Y16511D01*
X27315Y16511D01*
X27315Y16511D01*
X27318Y16496D01*
X27318Y16496D01*
X27318Y16496D01*
X27321Y16480D01*
X27321Y16480D01*
Y16480D01*
X27325Y16465D01*
X27325Y16465D01*
X27325Y16465D01*
X27330Y16448D01*
X27330Y16448D01*
Y16448D01*
X27336Y16432D01*
X27336Y16432D01*
Y16431D01*
X27342Y16414D01*
X27342Y16414D01*
Y16414D01*
X27349Y16396D01*
X27349D01*
Y16396D01*
X27358Y16377D01*
X27358Y16377D01*
Y16377D01*
X27367Y16358D01*
X27367Y16358D01*
X27367Y16358D01*
X27377Y16338D01*
X27377D01*
X27377Y16338D01*
X27388Y16317D01*
X27388Y16317D01*
X27388Y16317D01*
X27400Y16295D01*
Y16295D01*
X27400Y16295D01*
X27404Y16288D01*
Y16288D01*
X27909Y15414D01*
X27909Y15414D01*
Y15414D01*
X27920Y15394D01*
X27921D01*
Y15393D01*
X27932Y15375D01*
X27932Y15375D01*
Y15375D01*
X27944Y15357D01*
X27944Y15357D01*
X27944Y15357D01*
X27955Y15340D01*
X27955Y15340D01*
Y15340D01*
X27966Y15325D01*
X27966Y15325D01*
Y15325D01*
X27977Y15310D01*
X27977Y15310D01*
X27977Y15310D01*
X27988Y15296D01*
X27988Y15296D01*
Y15296D01*
X27998Y15284D01*
X27998Y15283D01*
Y15283D01*
X28009Y15271D01*
X28009Y15271D01*
X28009Y15271D01*
X28019Y15260D01*
X28019Y15260D01*
Y15260D01*
X28030Y15249D01*
X28030Y15249D01*
X28030Y15249D01*
X28041Y15239D01*
X28041D01*
X28041Y15239D01*
X28051Y15230D01*
X28051Y15230D01*
X28051Y15230D01*
X28062Y15221D01*
X28062Y15221D01*
X28062Y15221D01*
X28073Y15213D01*
X28074D01*
X28074Y15213D01*
X28085Y15205D01*
X28085D01*
X28085Y15205D01*
X28097Y15198D01*
X28097Y15198D01*
X28097Y15198D01*
X28110Y15191D01*
X28110D01*
X28110Y15191D01*
X28124Y15184D01*
X28125D01*
X28124Y15184D01*
X28142Y15178D01*
X28142Y15178D01*
X28145Y15177D01*
X28145Y15177D01*
X28145Y15177D01*
X28146Y15177D01*
X28163Y15173D01*
X28163Y15173D01*
X28179Y15171D01*
X28179Y15171D01*
X28179Y15171D01*
X28194Y15170D01*
X28194Y15170D01*
X28194Y15170D01*
X28207Y15171D01*
X28208Y15171D01*
X28208Y15171D01*
X28221Y15171D01*
X28221Y15171D01*
X28222Y15171D01*
X28236Y15173D01*
X28236Y15173D01*
X28236Y15173D01*
X28250Y15175D01*
X28250Y15175D01*
X28250Y15175D01*
X28264Y15178D01*
X28264Y15178D01*
X28264D01*
X28278Y15181D01*
X28278Y15181D01*
X28278Y15181D01*
X28293Y15185D01*
X28293Y15185D01*
X28293Y15185D01*
X28309Y15190D01*
X28309Y15190D01*
X28309Y15190D01*
X28325Y15195D01*
Y15195D01*
X28325D01*
X28342Y15202D01*
X28342Y15202D01*
X28342D01*
X28359Y15208D01*
X28359Y15208D01*
X28359D01*
X28377Y15216D01*
X28377Y15216D01*
X28378D01*
X28396Y15225D01*
X28396Y15225D01*
X28396D01*
X28416Y15235D01*
X28416Y15235D01*
X28416D01*
X28437Y15245D01*
X28437Y15245D01*
X28437D01*
X28458Y15257D01*
X28458Y15257D01*
X28480Y15269D01*
Y15269D01*
X28522Y15293D01*
X28522Y15294D01*
X28523Y15294D01*
X28523Y15295D01*
X28523Y15295D01*
X28523Y15296D01*
X28523Y15296D01*
X28421Y15625D01*
X28421Y15625D01*
X28421Y15625D01*
X28420Y15626D01*
X28420Y15627D01*
X28419Y15627D01*
X28419Y15627D01*
X28418Y15627D01*
X28417Y15627D01*
X28417Y15627D01*
X28417Y15626D01*
X28238Y15523D01*
X27663Y16518D01*
X28009Y16718D01*
X28517Y15838D01*
X28517Y15838D01*
Y15838D01*
X28529Y15818D01*
X28529Y15818D01*
Y15818D01*
X28541Y15799D01*
X28541Y15799D01*
X28541D01*
X28552Y15782D01*
X28552Y15782D01*
X28552Y15782D01*
X28563Y15765D01*
X28563Y15765D01*
Y15765D01*
X28574Y15750D01*
X28574Y15750D01*
X28574Y15750D01*
X28585Y15736D01*
X28585Y15736D01*
X28585Y15736D01*
X28595Y15722D01*
X28595Y15722D01*
X28595Y15722D01*
X28606Y15709D01*
X28606Y15709D01*
X28606Y15709D01*
X28616Y15697D01*
X28616Y15697D01*
Y15697D01*
X28626Y15686D01*
X28627D01*
Y15686D01*
X28637Y15676D01*
X28637Y15676D01*
X28637Y15676D01*
X28647Y15666D01*
X28647D01*
X28647Y15666D01*
X28658Y15656D01*
X28658D01*
X28658Y15656D01*
X28668Y15648D01*
X28668Y15648D01*
X28668Y15648D01*
X28679Y15640D01*
X28679D01*
X28679Y15640D01*
X28690Y15632D01*
X28690Y15632D01*
X28690Y15632D01*
X28702Y15625D01*
X28702Y15625D01*
X28702Y15625D01*
X28714Y15618D01*
X28714D01*
X28714Y15618D01*
X28728Y15612D01*
X28728D01*
X28728Y15612D01*
X28729Y15611D01*
X28744Y15606D01*
X28744Y15606D01*
X28753Y15603D01*
X28753D01*
X28753Y15603D01*
X28770Y15599D01*
X28771Y15599D01*
X28785Y15597D01*
X28785Y15598D01*
X28785Y15597D01*
X28800Y15597D01*
X28800Y15597D01*
X28800Y15597D01*
X28813Y15597D01*
X28813Y15597D01*
X28813Y15597D01*
X28827Y15598D01*
X28827Y15598D01*
X28827Y15598D01*
X28840Y15599D01*
X28840Y15599D01*
X28840Y15599D01*
X28854Y15601D01*
X28854Y15601D01*
X28854Y15601D01*
X28868Y15604D01*
X28868Y15604D01*
X28868D01*
X28882Y15607D01*
X28882Y15607D01*
X28883D01*
X28897Y15611D01*
X28897Y15611D01*
X28897D01*
X28912Y15616D01*
X28912Y15616D01*
X28913Y15616D01*
X28928Y15621D01*
X28929D01*
X28945Y15627D01*
X28945Y15627D01*
X28945D01*
X28962Y15634D01*
X28962Y15634D01*
X28962D01*
X28980Y15641D01*
X28980Y15641D01*
X28980D01*
X28999Y15650D01*
X28999Y15650D01*
X28999D01*
X29018Y15659D01*
X29018D01*
X29019Y15659D01*
X29039Y15670D01*
X29039Y15670D01*
X29039D01*
X29060Y15681D01*
Y15681D01*
X29060D01*
X29083Y15694D01*
X29083D01*
X29087Y15696D01*
X29087D01*
X29257Y15794D01*
X29257D01*
X29278Y15807D01*
X29278Y15807D01*
X29278D01*
X29297Y15818D01*
X29297Y15818D01*
X29315Y15830D01*
X29315Y15830D01*
X29315D01*
X29332Y15841D01*
X29332Y15841D01*
X29332D01*
X29348Y15852D01*
X29348Y15852D01*
X29348Y15852D01*
X29363Y15863D01*
Y15863D01*
X29363D01*
X29377Y15874D01*
X29377Y15874D01*
X29377Y15874D01*
X29390Y15884D01*
X29390Y15884D01*
X29390D01*
X29402Y15894D01*
X29402Y15894D01*
X29402Y15894D01*
X29413Y15904D01*
X29413Y15905D01*
X29413D01*
X29424Y15914D01*
X29424Y15914D01*
X29424Y15914D01*
X29434Y15924D01*
X29434Y15924D01*
X29434Y15924D01*
X29443Y15934D01*
X29443Y15934D01*
X29443Y15934D01*
X29452Y15944D01*
X29452Y15944D01*
X29452Y15944D01*
X29460Y15954D01*
X29460Y15954D01*
X29460Y15954D01*
X29468Y15964D01*
X29468Y15964D01*
X29468Y15964D01*
X29475Y15974D01*
Y15974D01*
X29475Y15974D01*
X29481Y15984D01*
X29481Y15984D01*
X29481Y15984D01*
X29487Y15995D01*
Y15995D01*
X29488Y15995D01*
X29493Y16006D01*
Y16007D01*
X29493Y16007D01*
X29499Y16019D01*
Y16019D01*
X29499Y16019D01*
X29504Y16034D01*
Y16034D01*
X29504Y16034D01*
X29504Y16037D01*
Y16037D01*
X29504Y16037D01*
X29505Y16037D01*
X29509Y16057D01*
X29509Y16057D01*
X29511Y16074D01*
X29511Y16074D01*
X29511Y16074D01*
X29511Y16090D01*
X29511Y16090D01*
Y16090D01*
X29511D01*
X29511Y16091D01*
X29511Y16104D01*
X29511Y16105D01*
X29510Y16120D01*
X29510Y16120D01*
X29510Y16120D01*
X29508Y16135D01*
X29508Y16135D01*
Y16135D01*
X29505Y16150D01*
X29505Y16150D01*
X29505Y16150D01*
X29502Y16165D01*
X29502Y16165D01*
Y16165D01*
X29498Y16180D01*
X29498Y16181D01*
X29498Y16181D01*
X29493Y16196D01*
X29493Y16196D01*
X29493Y16197D01*
X29488Y16213D01*
X29488Y16213D01*
Y16213D01*
X29482Y16230D01*
X29482Y16230D01*
Y16230D01*
X29474Y16248D01*
X29474Y16248D01*
Y16248D01*
X29467Y16266D01*
X29467Y16266D01*
Y16266D01*
X29458Y16285D01*
X29458Y16285D01*
Y16285D01*
X29448Y16305D01*
X29448Y16305D01*
Y16305D01*
X29437Y16325D01*
X29437Y16325D01*
Y16325D01*
X29425Y16347D01*
X29425D01*
Y16347D01*
X29419Y16359D01*
X28955Y17161D01*
X28955D01*
Y17161D01*
X28943Y17182D01*
X28943Y17182D01*
Y17182D01*
X28931Y17201D01*
X28931Y17201D01*
X28931Y17201D01*
X28920Y17219D01*
X28920Y17219D01*
Y17219D01*
X28909Y17235D01*
X28909D01*
X28909Y17235D01*
X28897Y17251D01*
X28897Y17251D01*
X28897Y17251D01*
X28886Y17266D01*
X28886Y17266D01*
X28886Y17266D01*
X28875Y17280D01*
X28875D01*
Y17280D01*
X28864Y17293D01*
X28864Y17293D01*
X28864Y17293D01*
X28853Y17305D01*
X28853D01*
X28853Y17305D01*
X28842Y17317D01*
X28842Y17317D01*
X28842Y17317D01*
X28831Y17328D01*
X28831Y17328D01*
X28831Y17328D01*
X28820Y17338D01*
X28820D01*
Y17338D01*
X28808Y17347D01*
X28808D01*
X28808Y17347D01*
X28797Y17356D01*
X28797Y17356D01*
X28797Y17356D01*
X28785Y17365D01*
X28784Y17365D01*
X28784Y17365D01*
X28772Y17373D01*
X28772Y17373D01*
X28772Y17373D01*
X28758Y17380D01*
X28758D01*
X28758Y17380D01*
X28742Y17388D01*
X28742D01*
X28742Y17388D01*
X28742Y17388D01*
X28725Y17394D01*
X28724Y17394D01*
X28724Y17394D01*
X28724Y17394D01*
X28717Y17397D01*
X28698Y17400D01*
Y17400D01*
X28698Y17400D01*
X28698Y17401D01*
X28697Y17400D01*
X28691Y17402D01*
X28679Y17402D01*
X28678Y17403D01*
X28661Y17403D01*
D02*
G37*
G36*
X27253Y19470D02*
X27250Y19469D01*
X25991Y18742D01*
X25989Y18741D01*
X25989Y18738D01*
X26152Y18456D01*
X26154Y18455D01*
X26156Y18455D01*
X26684Y18759D01*
X27190Y17882D01*
X26663Y17578D01*
X26661Y17576D01*
X26662Y17574D01*
X26662Y17574D01*
X26826Y17289D01*
X26828Y17288D01*
X26830Y17288D01*
X28090Y18015D01*
X28091Y18017D01*
X28091Y18019D01*
X27926Y18304D01*
X27925Y18305D01*
X27922Y18305D01*
X27446Y18030D01*
X26939Y18907D01*
X27416Y19182D01*
X27417Y19184D01*
X27417Y19186D01*
X27254Y19468D01*
X27253Y19470D01*
D02*
G37*
G36*
X22854Y16419D02*
X22728Y16417D01*
X22597Y16411D01*
X22467Y16400D01*
X22337Y16385D01*
X22207Y16366D01*
X22078Y16343D01*
X21950Y16315D01*
X21824Y16283D01*
X21698Y16247D01*
X21573Y16207D01*
X21450Y16163D01*
X21328Y16115D01*
X21208Y16063D01*
X21090Y16007D01*
X20973Y15947D01*
X20859Y15883D01*
X20746Y15816D01*
X20636Y15745D01*
X20529Y15671D01*
X20423Y15593D01*
X20321Y15511D01*
X20221Y15427D01*
X20124Y15339D01*
X20030Y15248D01*
X19939Y15154D01*
X19851Y15057D01*
X19766Y14957D01*
X19685Y14854D01*
X19607Y14749D01*
X19533Y14641D01*
X19462Y14531D01*
X19394Y14419D01*
X19331Y14305D01*
X19271Y14188D01*
X19215Y14070D01*
X19163Y13950D01*
X19115Y13828D01*
X19071Y13705D01*
X19030Y13580D01*
X18995Y13454D01*
X18963Y13327D01*
X18935Y13199D01*
X18912Y13070D01*
X18892Y12941D01*
X18878Y12811D01*
X18867Y12680D01*
X18860Y12550D01*
X18858Y12423D01*
X18860Y12297D01*
X18867Y12166D01*
X18878Y12035D01*
X18892Y11905D01*
X18912Y11776D01*
X18935Y11647D01*
X18963Y11519D01*
X18995Y11392D01*
X19030Y11266D01*
X19071Y11142D01*
X19115Y11018D01*
X19163Y10897D01*
X19215Y10776D01*
X19271Y10658D01*
X19331Y10542D01*
X19394Y10427D01*
X19462Y10315D01*
X19533Y10205D01*
X19607Y10097D01*
X19685Y9992D01*
X19766Y9889D01*
X19851Y9790D01*
X19939Y9693D01*
X20030Y9599D01*
X20124Y9508D01*
X20221Y9420D01*
X20321Y9335D01*
X20423Y9254D01*
X20529Y9176D01*
X20636Y9101D01*
X20746Y9030D01*
X20859Y8963D01*
X20973Y8899D01*
X21090Y8839D01*
X21208Y8783D01*
X21328Y8731D01*
X21450Y8683D01*
X21573Y8639D01*
X21698Y8599D01*
X21824Y8563D01*
X21950Y8531D01*
X22078Y8504D01*
X22207Y8480D01*
X22337Y8461D01*
X22467Y8446D01*
X22597Y8435D01*
X22728Y8429D01*
X22854Y8427D01*
X22980Y8429D01*
X23111Y8435D01*
X23242Y8446D01*
X23372Y8461D01*
X23501Y8480D01*
X23630Y8504D01*
X23758Y8531D01*
X23885Y8563D01*
X24011Y8599D01*
X24136Y8639D01*
X24259Y8683D01*
X24381Y8731D01*
X24501Y8783D01*
X24619Y8839D01*
X24735Y8899D01*
X24850Y8963D01*
X24962Y9030D01*
X25072Y9101D01*
X25180Y9176D01*
X25285Y9254D01*
X25388Y9335D01*
X25487Y9420D01*
X25584Y9507D01*
X25678Y9599D01*
X25769Y9693D01*
X25857Y9790D01*
X25942Y9889D01*
X26024Y9992D01*
X26101Y10097D01*
X26176Y10205D01*
X26247Y10315D01*
X26314Y10427D01*
X26378Y10542D01*
X26438Y10658D01*
X26494Y10776D01*
X26546Y10897D01*
X26594Y11018D01*
X26638Y11141D01*
X26678Y11266D01*
X26714Y11392D01*
X26746Y11519D01*
X26773Y11647D01*
X26797Y11776D01*
X26816Y11905D01*
X26831Y12035D01*
X26842Y12166D01*
X26848Y12297D01*
X26850Y12423D01*
X26848Y12550D01*
X26842Y12680D01*
X26831Y12811D01*
X26816Y12941D01*
X26797Y13070D01*
X26773Y13199D01*
X26746Y13327D01*
X26714Y13454D01*
X26678Y13580D01*
X26638Y13705D01*
X26594Y13828D01*
X26546Y13950D01*
X26494Y14070D01*
X26438Y14188D01*
X26378Y14305D01*
X26314Y14419D01*
X26247Y14531D01*
X26176Y14641D01*
X26101Y14749D01*
X26024Y14854D01*
X25942Y14957D01*
X25857Y15057D01*
X25769Y15154D01*
X25679Y15248D01*
X25584Y15339D01*
X25487Y15427D01*
X25388Y15511D01*
X25285Y15593D01*
X25180Y15671D01*
X25072Y15745D01*
X24962Y15816D01*
X24850Y15883D01*
X24735Y15947D01*
X24619Y16007D01*
X24501Y16063D01*
X24381Y16115D01*
X24259Y16163D01*
X24136Y16207D01*
X24011Y16247D01*
X23885Y16283D01*
X23758Y16315D01*
X23630Y16343D01*
X23501Y16366D01*
X23372Y16385D01*
X23242Y16400D01*
X23111Y16411D01*
X22980Y16417D01*
X22854Y16419D01*
D02*
G37*
%LPD*%
G36*
X23384Y25625D02*
X22603Y25174D01*
X22068Y26100D01*
X22849Y26551D01*
X23384Y25625D01*
D02*
G37*
G36*
X25467Y22017D02*
X24686Y21566D01*
X24151Y22492D01*
X24932Y22943D01*
X25467Y22017D01*
D02*
G37*
G36*
X25945Y19996D02*
X25643Y20519D01*
X26313Y20550D01*
X25945Y19996D01*
D02*
G37*
D17*
X37008Y8661D02*
D03*
Y25984D02*
D03*
D18*
X-22441Y28740D02*
D03*
Y5906D02*
D03*
D19*
X9449Y3937D02*
D03*
X-2874D02*
D03*
Y17323D02*
D03*
X9449Y30709D02*
D03*
X-2874D02*
D03*
M02*
