G04*
G04 #@! TF.GenerationSoftware,Altium Limited,Altium Designer,18.1.2 (67)*
G04*
G04 Layer_Color=65535*
%FSLAX25Y25*%
%MOIN*%
G70*
G01*
G75*
%ADD10C,0.00800*%
G36*
X18949Y18580D02*
X18973Y18578D01*
X18997Y18576D01*
X19025Y18574D01*
X19086Y18565D01*
X19154Y18552D01*
X19221Y18532D01*
X19287Y18508D01*
X19289D01*
X19293Y18504D01*
X19304Y18502D01*
X19315Y18495D01*
X19328Y18486D01*
X19345Y18478D01*
X19383Y18456D01*
X19426Y18426D01*
X19470Y18388D01*
X19511Y18347D01*
X19548Y18297D01*
X19550Y18295D01*
X19553Y18290D01*
X19557Y18284D01*
X19564Y18273D01*
X19570Y18260D01*
X19579Y18245D01*
X19585Y18225D01*
X19596Y18205D01*
X19614Y18159D01*
X19629Y18105D01*
X19642Y18046D01*
X19648Y17981D01*
X19394Y17961D01*
Y17963D01*
X19391Y17970D01*
Y17979D01*
X19389Y17992D01*
X19385Y18009D01*
X19380Y18027D01*
X19367Y18068D01*
X19350Y18114D01*
X19324Y18162D01*
X19293Y18207D01*
X19274Y18227D01*
X19252Y18247D01*
X19250Y18249D01*
X19247Y18251D01*
X19239Y18255D01*
X19230Y18262D01*
X19217Y18269D01*
X19202Y18277D01*
X19184Y18286D01*
X19164Y18297D01*
X19141Y18306D01*
X19114Y18314D01*
X19086Y18323D01*
X19056Y18330D01*
X19021Y18336D01*
X18984Y18340D01*
X18944Y18345D01*
X18881D01*
X18864Y18343D01*
X18844D01*
X18822Y18340D01*
X18796Y18338D01*
X18770Y18334D01*
X18711Y18323D01*
X18654Y18308D01*
X18600Y18286D01*
X18574Y18271D01*
X18552Y18255D01*
X18550D01*
X18548Y18251D01*
X18534Y18240D01*
X18517Y18221D01*
X18497Y18194D01*
X18478Y18164D01*
X18460Y18127D01*
X18447Y18088D01*
X18445Y18066D01*
X18443Y18042D01*
Y18040D01*
Y18037D01*
X18445Y18024D01*
X18447Y18005D01*
X18452Y17981D01*
X18463Y17952D01*
X18476Y17922D01*
X18493Y17894D01*
X18519Y17865D01*
X18524Y17863D01*
X18528Y17859D01*
X18537Y17852D01*
X18548Y17846D01*
X18561Y17839D01*
X18578Y17830D01*
X18598Y17819D01*
X18622Y17808D01*
X18650Y17798D01*
X18683Y17787D01*
X18720Y17774D01*
X18763Y17761D01*
X18809Y17748D01*
X18861Y17732D01*
X18920Y17719D01*
X18925D01*
X18936Y17717D01*
X18951Y17713D01*
X18973Y17706D01*
X18999Y17702D01*
X19029Y17693D01*
X19062Y17686D01*
X19097Y17676D01*
X19171Y17656D01*
X19245Y17636D01*
X19280Y17625D01*
X19311Y17615D01*
X19341Y17604D01*
X19365Y17593D01*
X19367D01*
X19374Y17588D01*
X19383Y17584D01*
X19394Y17578D01*
X19409Y17571D01*
X19426Y17560D01*
X19463Y17536D01*
X19507Y17508D01*
X19548Y17473D01*
X19590Y17431D01*
X19607Y17410D01*
X19624Y17388D01*
Y17386D01*
X19629Y17381D01*
X19633Y17375D01*
X19638Y17366D01*
X19644Y17355D01*
X19651Y17340D01*
X19668Y17305D01*
X19683Y17264D01*
X19696Y17216D01*
X19705Y17161D01*
X19710Y17102D01*
Y17100D01*
Y17096D01*
Y17087D01*
X19707Y17076D01*
Y17061D01*
X19705Y17046D01*
X19699Y17004D01*
X19688Y16958D01*
X19670Y16908D01*
X19646Y16856D01*
X19633Y16827D01*
X19616Y16801D01*
Y16799D01*
X19611Y16795D01*
X19607Y16788D01*
X19598Y16777D01*
X19579Y16753D01*
X19548Y16721D01*
X19511Y16686D01*
X19465Y16649D01*
X19413Y16614D01*
X19352Y16581D01*
X19350D01*
X19343Y16577D01*
X19335Y16575D01*
X19321Y16568D01*
X19306Y16564D01*
X19287Y16557D01*
X19265Y16548D01*
X19239Y16542D01*
X19212Y16535D01*
X19182Y16527D01*
X19117Y16516D01*
X19045Y16507D01*
X18966Y16503D01*
X18940D01*
X18920Y16505D01*
X18896D01*
X18870Y16507D01*
X18840Y16509D01*
X18805Y16514D01*
X18733Y16522D01*
X18657Y16535D01*
X18580Y16555D01*
X18506Y16581D01*
X18504D01*
X18497Y16586D01*
X18489Y16590D01*
X18476Y16597D01*
X18460Y16605D01*
X18443Y16614D01*
X18402Y16640D01*
X18356Y16673D01*
X18308Y16714D01*
X18260Y16762D01*
X18218Y16819D01*
X18216Y16821D01*
X18214Y16825D01*
X18210Y16834D01*
X18203Y16847D01*
X18194Y16862D01*
X18186Y16880D01*
X18175Y16902D01*
X18166Y16926D01*
X18155Y16950D01*
X18146Y16978D01*
X18129Y17041D01*
X18116Y17109D01*
X18112Y17146D01*
X18109Y17183D01*
X18360Y17205D01*
Y17202D01*
Y17198D01*
X18362Y17189D01*
X18364Y17178D01*
X18367Y17165D01*
X18369Y17152D01*
X18378Y17115D01*
X18388Y17076D01*
X18402Y17035D01*
X18419Y16993D01*
X18441Y16954D01*
X18443Y16950D01*
X18454Y16939D01*
X18469Y16921D01*
X18491Y16899D01*
X18519Y16873D01*
X18554Y16849D01*
X18596Y16823D01*
X18643Y16799D01*
X18646D01*
X18650Y16797D01*
X18657Y16795D01*
X18667Y16791D01*
X18681Y16786D01*
X18696Y16780D01*
X18713Y16775D01*
X18733Y16771D01*
X18779Y16760D01*
X18833Y16749D01*
X18890Y16743D01*
X18953Y16740D01*
X18979D01*
X18992Y16743D01*
X19008D01*
X19042Y16747D01*
X19084Y16751D01*
X19130Y16758D01*
X19175Y16769D01*
X19219Y16784D01*
X19221D01*
X19223Y16786D01*
X19230Y16788D01*
X19239Y16793D01*
X19258Y16804D01*
X19285Y16817D01*
X19313Y16834D01*
X19343Y16856D01*
X19369Y16880D01*
X19394Y16908D01*
X19396Y16913D01*
X19402Y16921D01*
X19413Y16939D01*
X19424Y16961D01*
X19433Y16987D01*
X19444Y17015D01*
X19450Y17048D01*
X19452Y17080D01*
Y17083D01*
Y17085D01*
Y17096D01*
X19450Y17115D01*
X19446Y17137D01*
X19439Y17163D01*
X19428Y17192D01*
X19415Y17220D01*
X19396Y17246D01*
X19394Y17248D01*
X19385Y17257D01*
X19372Y17270D01*
X19352Y17288D01*
X19328Y17305D01*
X19295Y17325D01*
X19258Y17344D01*
X19215Y17364D01*
X19210Y17366D01*
X19206Y17368D01*
X19197Y17370D01*
X19188Y17373D01*
X19175Y17377D01*
X19158Y17383D01*
X19141Y17388D01*
X19117Y17394D01*
X19093Y17403D01*
X19062Y17410D01*
X19029Y17418D01*
X18992Y17429D01*
X18953Y17438D01*
X18907Y17451D01*
X18857Y17462D01*
X18855D01*
X18846Y17464D01*
X18831Y17469D01*
X18814Y17473D01*
X18790Y17479D01*
X18763Y17486D01*
X18737Y17495D01*
X18707Y17503D01*
X18641Y17523D01*
X18578Y17545D01*
X18548Y17556D01*
X18519Y17567D01*
X18493Y17578D01*
X18471Y17588D01*
X18469D01*
X18465Y17593D01*
X18458Y17597D01*
X18447Y17601D01*
X18421Y17617D01*
X18391Y17639D01*
X18354Y17667D01*
X18319Y17697D01*
X18284Y17734D01*
X18256Y17774D01*
Y17776D01*
X18253Y17778D01*
X18249Y17785D01*
X18245Y17793D01*
X18234Y17817D01*
X18221Y17848D01*
X18207Y17885D01*
X18197Y17929D01*
X18188Y17976D01*
X18186Y18027D01*
Y18029D01*
Y18033D01*
Y18042D01*
X18188Y18053D01*
Y18066D01*
X18190Y18081D01*
X18197Y18120D01*
X18207Y18164D01*
X18221Y18210D01*
X18242Y18260D01*
X18271Y18310D01*
Y18312D01*
X18275Y18316D01*
X18280Y18323D01*
X18286Y18332D01*
X18308Y18356D01*
X18336Y18386D01*
X18371Y18419D01*
X18415Y18452D01*
X18465Y18484D01*
X18524Y18513D01*
X18526D01*
X18530Y18515D01*
X18541Y18519D01*
X18552Y18524D01*
X18567Y18528D01*
X18587Y18534D01*
X18609Y18541D01*
X18633Y18548D01*
X18659Y18554D01*
X18687Y18561D01*
X18748Y18572D01*
X18818Y18580D01*
X18892Y18583D01*
X18929D01*
X18949Y18580D01*
D02*
G37*
G36*
X17754Y17386D02*
Y17381D01*
Y17373D01*
Y17357D01*
Y17335D01*
X17752Y17309D01*
X17750Y17281D01*
X17748Y17248D01*
X17745Y17211D01*
X17737Y17135D01*
X17726Y17054D01*
X17708Y16976D01*
X17697Y16939D01*
X17684Y16904D01*
Y16902D01*
X17682Y16895D01*
X17678Y16886D01*
X17671Y16873D01*
X17662Y16858D01*
X17654Y16841D01*
X17628Y16801D01*
X17612Y16777D01*
X17595Y16756D01*
X17573Y16729D01*
X17551Y16705D01*
X17525Y16681D01*
X17499Y16657D01*
X17469Y16636D01*
X17436Y16614D01*
X17434Y16612D01*
X17427Y16610D01*
X17418Y16603D01*
X17403Y16597D01*
X17386Y16588D01*
X17364Y16579D01*
X17340Y16568D01*
X17309Y16559D01*
X17279Y16548D01*
X17244Y16538D01*
X17205Y16529D01*
X17163Y16520D01*
X17118Y16514D01*
X17070Y16507D01*
X17019Y16505D01*
X16967Y16503D01*
X16939D01*
X16919Y16505D01*
X16895D01*
X16869Y16507D01*
X16836Y16511D01*
X16804Y16516D01*
X16729Y16527D01*
X16651Y16544D01*
X16575Y16568D01*
X16538Y16581D01*
X16503Y16599D01*
X16501Y16601D01*
X16494Y16603D01*
X16485Y16610D01*
X16474Y16616D01*
X16459Y16627D01*
X16442Y16640D01*
X16424Y16653D01*
X16405Y16671D01*
X16361Y16710D01*
X16320Y16758D01*
X16280Y16815D01*
X16263Y16847D01*
X16248Y16880D01*
Y16882D01*
X16246Y16889D01*
X16241Y16899D01*
X16237Y16915D01*
X16230Y16932D01*
X16224Y16956D01*
X16217Y16982D01*
X16211Y17013D01*
X16202Y17048D01*
X16195Y17085D01*
X16189Y17126D01*
X16184Y17172D01*
X16178Y17220D01*
X16176Y17272D01*
X16171Y17327D01*
Y17386D01*
Y18548D01*
X16437D01*
Y17386D01*
Y17383D01*
Y17375D01*
Y17362D01*
Y17342D01*
X16440Y17320D01*
Y17296D01*
X16442Y17268D01*
X16444Y17240D01*
X16448Y17176D01*
X16457Y17113D01*
X16470Y17052D01*
X16477Y17024D01*
X16485Y17000D01*
Y16998D01*
X16488Y16995D01*
X16490Y16989D01*
X16494Y16980D01*
X16507Y16956D01*
X16525Y16930D01*
X16546Y16897D01*
X16575Y16867D01*
X16610Y16836D01*
X16651Y16808D01*
X16653D01*
X16658Y16806D01*
X16664Y16801D01*
X16673Y16797D01*
X16684Y16793D01*
X16699Y16788D01*
X16714Y16782D01*
X16732Y16775D01*
X16775Y16764D01*
X16825Y16753D01*
X16882Y16745D01*
X16943Y16743D01*
X16972D01*
X16991Y16745D01*
X17015Y16747D01*
X17043Y16749D01*
X17074Y16753D01*
X17107Y16760D01*
X17174Y16775D01*
X17209Y16786D01*
X17244Y16799D01*
X17277Y16815D01*
X17307Y16832D01*
X17335Y16851D01*
X17362Y16875D01*
X17364Y16878D01*
X17368Y16882D01*
X17373Y16891D01*
X17381Y16902D01*
X17390Y16917D01*
X17401Y16937D01*
X17414Y16961D01*
X17425Y16989D01*
X17436Y17022D01*
X17449Y17059D01*
X17460Y17100D01*
X17469Y17146D01*
X17477Y17198D01*
X17484Y17255D01*
X17486Y17318D01*
X17488Y17386D01*
Y18548D01*
X17754D01*
Y17386D01*
D02*
G37*
G36*
X15748Y16535D02*
X15528D01*
Y16749D01*
X15526Y16747D01*
X15520Y16738D01*
X15511Y16727D01*
X15498Y16710D01*
X15480Y16692D01*
X15459Y16671D01*
X15435Y16649D01*
X15406Y16627D01*
X15373Y16603D01*
X15339Y16581D01*
X15302Y16559D01*
X15260Y16542D01*
X15214Y16524D01*
X15169Y16514D01*
X15119Y16505D01*
X15064Y16503D01*
X15042D01*
X15018Y16505D01*
X14986Y16509D01*
X14948Y16514D01*
X14907Y16522D01*
X14866Y16535D01*
X14822Y16551D01*
X14820D01*
X14818Y16553D01*
X14805Y16559D01*
X14785Y16570D01*
X14759Y16586D01*
X14733Y16603D01*
X14704Y16625D01*
X14678Y16649D01*
X14656Y16675D01*
X14654Y16679D01*
X14648Y16688D01*
X14639Y16705D01*
X14628Y16727D01*
X14615Y16753D01*
X14602Y16784D01*
X14591Y16819D01*
X14580Y16858D01*
Y16862D01*
X14578Y16871D01*
X14576Y16891D01*
X14573Y16915D01*
X14571Y16948D01*
X14569Y16987D01*
X14567Y17035D01*
Y17089D01*
Y17994D01*
X14813D01*
Y17185D01*
Y17183D01*
Y17176D01*
Y17168D01*
Y17155D01*
Y17137D01*
Y17120D01*
X14816Y17080D01*
Y17037D01*
X14820Y16993D01*
X14822Y16954D01*
X14824Y16937D01*
X14826Y16924D01*
X14829Y16919D01*
X14831Y16908D01*
X14837Y16889D01*
X14848Y16867D01*
X14861Y16843D01*
X14879Y16819D01*
X14900Y16793D01*
X14927Y16771D01*
X14931Y16769D01*
X14940Y16762D01*
X14957Y16753D01*
X14979Y16745D01*
X15005Y16734D01*
X15038Y16725D01*
X15075Y16718D01*
X15114Y16716D01*
X15134D01*
X15153Y16718D01*
X15182Y16723D01*
X15214Y16729D01*
X15249Y16740D01*
X15284Y16753D01*
X15321Y16773D01*
X15323D01*
X15326Y16775D01*
X15337Y16784D01*
X15354Y16797D01*
X15376Y16815D01*
X15397Y16836D01*
X15421Y16862D01*
X15443Y16893D01*
X15461Y16928D01*
Y16930D01*
X15463Y16932D01*
X15465Y16939D01*
X15467Y16945D01*
X15470Y16956D01*
X15474Y16969D01*
X15478Y16982D01*
X15483Y17000D01*
X15489Y17041D01*
X15496Y17089D01*
X15500Y17146D01*
X15502Y17211D01*
Y17994D01*
X15748D01*
Y16535D01*
D02*
G37*
G36*
X20872Y18545D02*
X20896D01*
X20920Y18543D01*
X20948Y18539D01*
X21004Y18532D01*
X21068Y18521D01*
X21127Y18506D01*
X21183Y18484D01*
X21185D01*
X21190Y18482D01*
X21196Y18478D01*
X21207Y18473D01*
X21231Y18458D01*
X21264Y18439D01*
X21299Y18412D01*
X21334Y18380D01*
X21369Y18340D01*
X21401Y18297D01*
Y18295D01*
X21406Y18290D01*
X21408Y18284D01*
X21414Y18275D01*
X21421Y18264D01*
X21427Y18249D01*
X21443Y18216D01*
X21456Y18177D01*
X21469Y18131D01*
X21477Y18083D01*
X21482Y18031D01*
Y18029D01*
Y18024D01*
Y18018D01*
Y18009D01*
X21477Y17985D01*
X21473Y17952D01*
X21464Y17915D01*
X21451Y17874D01*
X21434Y17832D01*
X21410Y17789D01*
Y17787D01*
X21408Y17785D01*
X21403Y17778D01*
X21397Y17769D01*
X21382Y17750D01*
X21358Y17724D01*
X21329Y17695D01*
X21292Y17665D01*
X21251Y17634D01*
X21201Y17606D01*
X21203D01*
X21209Y17604D01*
X21218Y17599D01*
X21231Y17595D01*
X21246Y17588D01*
X21264Y17582D01*
X21303Y17562D01*
X21349Y17538D01*
X21395Y17505D01*
X21441Y17469D01*
X21480Y17423D01*
X21482Y17421D01*
X21484Y17416D01*
X21488Y17410D01*
X21495Y17401D01*
X21504Y17388D01*
X21512Y17373D01*
X21521Y17355D01*
X21530Y17335D01*
X21547Y17292D01*
X21565Y17240D01*
X21576Y17181D01*
X21580Y17150D01*
Y17118D01*
Y17115D01*
Y17111D01*
Y17104D01*
Y17094D01*
X21578Y17080D01*
Y17067D01*
X21573Y17032D01*
X21565Y16991D01*
X21554Y16948D01*
X21539Y16899D01*
X21519Y16854D01*
Y16851D01*
X21517Y16849D01*
X21512Y16843D01*
X21508Y16834D01*
X21495Y16812D01*
X21477Y16786D01*
X21458Y16756D01*
X21432Y16725D01*
X21403Y16695D01*
X21371Y16666D01*
X21366Y16664D01*
X21355Y16655D01*
X21336Y16644D01*
X21310Y16629D01*
X21279Y16614D01*
X21242Y16597D01*
X21199Y16581D01*
X21150Y16568D01*
X21148D01*
X21144Y16566D01*
X21137D01*
X21127Y16564D01*
X21113Y16562D01*
X21098Y16557D01*
X21081Y16555D01*
X21061Y16553D01*
X21039Y16548D01*
X21013Y16546D01*
X20959Y16540D01*
X20896Y16538D01*
X20826Y16535D01*
X20061D01*
Y18548D01*
X20852D01*
X20872Y18545D01*
D02*
G37*
G36*
X14054Y33935D02*
X14076Y33932D01*
X14100Y33930D01*
X14128Y33928D01*
X14189Y33919D01*
X14256Y33906D01*
X14324Y33889D01*
X14392Y33865D01*
X14394D01*
X14400Y33863D01*
X14409Y33858D01*
X14420Y33852D01*
X14435Y33845D01*
X14453Y33836D01*
X14492Y33815D01*
X14538Y33786D01*
X14583Y33754D01*
X14627Y33714D01*
X14669Y33669D01*
X14671Y33667D01*
X14673Y33662D01*
X14677Y33656D01*
X14686Y33647D01*
X14693Y33634D01*
X14703Y33619D01*
X14714Y33601D01*
X14725Y33579D01*
X14738Y33558D01*
X14749Y33533D01*
X14762Y33505D01*
X14775Y33477D01*
X14799Y33411D01*
X14821Y33340D01*
X14579Y33274D01*
Y33276D01*
X14577Y33281D01*
X14575Y33289D01*
X14570Y33300D01*
X14566Y33311D01*
X14562Y33326D01*
X14549Y33361D01*
X14531Y33400D01*
X14512Y33440D01*
X14490Y33479D01*
X14466Y33514D01*
X14464Y33518D01*
X14453Y33529D01*
X14437Y33544D01*
X14418Y33566D01*
X14390Y33588D01*
X14357Y33612D01*
X14318Y33634D01*
X14274Y33656D01*
X14272D01*
X14267Y33658D01*
X14261Y33660D01*
X14252Y33664D01*
X14241Y33669D01*
X14226Y33673D01*
X14193Y33684D01*
X14152Y33693D01*
X14106Y33701D01*
X14054Y33708D01*
X13999Y33710D01*
X13969D01*
X13953Y33708D01*
X13934D01*
X13914Y33706D01*
X13890Y33704D01*
X13842Y33697D01*
X13788Y33686D01*
X13735Y33673D01*
X13683Y33653D01*
X13681D01*
X13677Y33651D01*
X13670Y33647D01*
X13661Y33643D01*
X13637Y33632D01*
X13607Y33614D01*
X13572Y33592D01*
X13537Y33566D01*
X13500Y33538D01*
X13467Y33505D01*
X13463Y33501D01*
X13454Y33490D01*
X13439Y33470D01*
X13422Y33446D01*
X13402Y33418D01*
X13380Y33383D01*
X13361Y33346D01*
X13343Y33307D01*
Y33305D01*
X13341Y33298D01*
X13337Y33289D01*
X13332Y33274D01*
X13326Y33257D01*
X13319Y33237D01*
X13313Y33213D01*
X13306Y33187D01*
X13297Y33158D01*
X13291Y33126D01*
X13280Y33058D01*
X13271Y32982D01*
X13267Y32901D01*
Y32899D01*
Y32890D01*
Y32875D01*
X13269Y32858D01*
Y32834D01*
X13271Y32807D01*
X13275Y32777D01*
X13278Y32744D01*
X13289Y32672D01*
X13306Y32598D01*
X13328Y32522D01*
X13358Y32450D01*
X13361Y32448D01*
X13363Y32441D01*
X13367Y32433D01*
X13376Y32419D01*
X13385Y32406D01*
X13398Y32389D01*
X13426Y32350D01*
X13465Y32306D01*
X13511Y32260D01*
X13563Y32219D01*
X13594Y32199D01*
X13626Y32182D01*
X13629D01*
X13635Y32177D01*
X13644Y32173D01*
X13657Y32169D01*
X13675Y32162D01*
X13694Y32153D01*
X13716Y32147D01*
X13740Y32138D01*
X13766Y32130D01*
X13796Y32123D01*
X13860Y32108D01*
X13929Y32099D01*
X14004Y32095D01*
X14021D01*
X14034Y32097D01*
X14049D01*
X14067Y32099D01*
X14086Y32101D01*
X14110Y32103D01*
X14161Y32110D01*
X14217Y32123D01*
X14278Y32138D01*
X14339Y32160D01*
X14342D01*
X14346Y32162D01*
X14355Y32167D01*
X14368Y32171D01*
X14381Y32177D01*
X14396Y32186D01*
X14433Y32204D01*
X14475Y32225D01*
X14516Y32250D01*
X14555Y32273D01*
X14590Y32302D01*
Y32679D01*
X13999D01*
Y32917D01*
X14852D01*
Y32169D01*
X14850Y32167D01*
X14843Y32162D01*
X14832Y32153D01*
X14817Y32143D01*
X14799Y32130D01*
X14777Y32116D01*
X14754Y32099D01*
X14727Y32082D01*
X14699Y32064D01*
X14666Y32045D01*
X14599Y32005D01*
X14525Y31968D01*
X14446Y31936D01*
X14444D01*
X14437Y31931D01*
X14427Y31929D01*
X14409Y31923D01*
X14392Y31918D01*
X14368Y31912D01*
X14344Y31903D01*
X14315Y31896D01*
X14283Y31890D01*
X14250Y31881D01*
X14178Y31870D01*
X14100Y31861D01*
X14019Y31857D01*
X13991D01*
X13969Y31859D01*
X13943Y31861D01*
X13912Y31864D01*
X13877Y31868D01*
X13840Y31872D01*
X13801Y31879D01*
X13757Y31888D01*
X13714Y31898D01*
X13666Y31912D01*
X13620Y31925D01*
X13574Y31942D01*
X13526Y31962D01*
X13480Y31984D01*
X13478Y31986D01*
X13470Y31990D01*
X13456Y31997D01*
X13441Y32008D01*
X13422Y32021D01*
X13398Y32036D01*
X13371Y32055D01*
X13343Y32077D01*
X13315Y32101D01*
X13284Y32130D01*
X13254Y32158D01*
X13223Y32191D01*
X13195Y32228D01*
X13167Y32265D01*
X13138Y32306D01*
X13114Y32350D01*
X13112Y32352D01*
X13110Y32361D01*
X13103Y32374D01*
X13095Y32391D01*
X13086Y32415D01*
X13075Y32441D01*
X13064Y32472D01*
X13053Y32507D01*
X13042Y32544D01*
X13031Y32585D01*
X13021Y32631D01*
X13012Y32677D01*
X13003Y32727D01*
X12997Y32777D01*
X12994Y32831D01*
X12992Y32886D01*
Y32890D01*
Y32899D01*
Y32914D01*
X12994Y32936D01*
X12997Y32962D01*
X12999Y32993D01*
X13003Y33028D01*
X13007Y33065D01*
X13014Y33106D01*
X13023Y33150D01*
X13045Y33241D01*
X13058Y33289D01*
X13075Y33337D01*
X13092Y33385D01*
X13114Y33433D01*
X13116Y33435D01*
X13121Y33444D01*
X13127Y33457D01*
X13136Y33475D01*
X13149Y33496D01*
X13164Y33520D01*
X13184Y33547D01*
X13204Y33577D01*
X13228Y33608D01*
X13254Y33638D01*
X13282Y33669D01*
X13315Y33701D01*
X13348Y33732D01*
X13385Y33760D01*
X13424Y33788D01*
X13465Y33812D01*
X13467Y33815D01*
X13476Y33817D01*
X13489Y33823D01*
X13507Y33832D01*
X13528Y33841D01*
X13555Y33852D01*
X13585Y33863D01*
X13618Y33876D01*
X13655Y33887D01*
X13696Y33898D01*
X13740Y33908D01*
X13788Y33917D01*
X13836Y33926D01*
X13888Y33932D01*
X13943Y33935D01*
X13997Y33937D01*
X14034D01*
X14054Y33935D01*
D02*
G37*
G36*
X16827Y31890D02*
X16552D01*
X15497Y33468D01*
Y31890D01*
X15242D01*
Y33902D01*
X15514D01*
X16572Y32321D01*
Y33902D01*
X16827D01*
Y31890D01*
D02*
G37*
G36*
X18045Y33900D02*
X18071D01*
X18098Y33898D01*
X18157Y33895D01*
X18215Y33889D01*
X18274Y33882D01*
X18300Y33876D01*
X18324Y33871D01*
X18327D01*
X18333Y33869D01*
X18342Y33867D01*
X18353Y33863D01*
X18368Y33858D01*
X18385Y33854D01*
X18427Y33839D01*
X18473Y33819D01*
X18521Y33795D01*
X18571Y33765D01*
X18619Y33727D01*
X18621Y33725D01*
X18625Y33721D01*
X18634Y33714D01*
X18645Y33704D01*
X18658Y33690D01*
X18673Y33673D01*
X18691Y33656D01*
X18708Y33634D01*
X18728Y33610D01*
X18747Y33584D01*
X18767Y33555D01*
X18787Y33525D01*
X18824Y33457D01*
X18856Y33383D01*
Y33381D01*
X18861Y33374D01*
X18863Y33361D01*
X18869Y33346D01*
X18876Y33326D01*
X18882Y33302D01*
X18889Y33276D01*
X18898Y33246D01*
X18904Y33211D01*
X18911Y33174D01*
X18917Y33134D01*
X18924Y33093D01*
X18930Y33049D01*
X18933Y33004D01*
X18937Y32906D01*
Y32904D01*
Y32895D01*
Y32884D01*
Y32866D01*
X18935Y32847D01*
Y32823D01*
X18933Y32797D01*
X18930Y32768D01*
X18924Y32705D01*
X18913Y32638D01*
X18900Y32568D01*
X18882Y32498D01*
Y32496D01*
X18880Y32489D01*
X18876Y32480D01*
X18874Y32470D01*
X18867Y32454D01*
X18861Y32437D01*
X18845Y32395D01*
X18826Y32350D01*
X18802Y32300D01*
X18776Y32252D01*
X18745Y32206D01*
Y32204D01*
X18741Y32201D01*
X18736Y32195D01*
X18730Y32186D01*
X18715Y32167D01*
X18691Y32140D01*
X18665Y32110D01*
X18634Y32079D01*
X18599Y32051D01*
X18562Y32023D01*
X18560D01*
X18558Y32021D01*
X18545Y32012D01*
X18523Y32001D01*
X18495Y31986D01*
X18460Y31970D01*
X18418Y31953D01*
X18370Y31938D01*
X18320Y31923D01*
X18318D01*
X18314Y31920D01*
X18307D01*
X18296Y31918D01*
X18283Y31916D01*
X18266Y31912D01*
X18248Y31909D01*
X18228Y31907D01*
X18180Y31901D01*
X18126Y31894D01*
X18065Y31892D01*
X18000Y31890D01*
X17274D01*
Y33902D01*
X18024D01*
X18045Y33900D01*
D02*
G37*
G36*
X5443D02*
X5470D01*
X5496Y33898D01*
X5555Y33895D01*
X5613Y33889D01*
X5672Y33882D01*
X5698Y33876D01*
X5722Y33871D01*
X5725D01*
X5731Y33869D01*
X5740Y33867D01*
X5751Y33863D01*
X5766Y33858D01*
X5784Y33854D01*
X5825Y33839D01*
X5871Y33819D01*
X5919Y33795D01*
X5969Y33765D01*
X6017Y33727D01*
X6019Y33725D01*
X6023Y33721D01*
X6032Y33714D01*
X6043Y33704D01*
X6056Y33690D01*
X6071Y33673D01*
X6089Y33656D01*
X6106Y33634D01*
X6126Y33610D01*
X6145Y33584D01*
X6165Y33555D01*
X6185Y33525D01*
X6222Y33457D01*
X6254Y33383D01*
Y33381D01*
X6259Y33374D01*
X6261Y33361D01*
X6267Y33346D01*
X6274Y33326D01*
X6280Y33302D01*
X6287Y33276D01*
X6296Y33246D01*
X6302Y33211D01*
X6309Y33174D01*
X6315Y33134D01*
X6322Y33093D01*
X6329Y33049D01*
X6331Y33004D01*
X6335Y32906D01*
Y32904D01*
Y32895D01*
Y32884D01*
Y32866D01*
X6333Y32847D01*
Y32823D01*
X6331Y32797D01*
X6329Y32768D01*
X6322Y32705D01*
X6311Y32638D01*
X6298Y32568D01*
X6280Y32498D01*
Y32496D01*
X6278Y32489D01*
X6274Y32480D01*
X6272Y32470D01*
X6265Y32454D01*
X6259Y32437D01*
X6243Y32395D01*
X6224Y32350D01*
X6200Y32300D01*
X6174Y32252D01*
X6143Y32206D01*
Y32204D01*
X6139Y32201D01*
X6134Y32195D01*
X6128Y32186D01*
X6113Y32167D01*
X6089Y32140D01*
X6063Y32110D01*
X6032Y32079D01*
X5997Y32051D01*
X5960Y32023D01*
X5958D01*
X5956Y32021D01*
X5943Y32012D01*
X5921Y32001D01*
X5892Y31986D01*
X5858Y31970D01*
X5816Y31953D01*
X5768Y31938D01*
X5718Y31923D01*
X5716D01*
X5711Y31920D01*
X5705D01*
X5694Y31918D01*
X5681Y31916D01*
X5664Y31912D01*
X5646Y31909D01*
X5627Y31907D01*
X5579Y31901D01*
X5524Y31894D01*
X5463Y31892D01*
X5398Y31890D01*
X4672D01*
Y33902D01*
X5422D01*
X5443Y33900D01*
D02*
G37*
G36*
X4203Y31890D02*
X3937D01*
Y33902D01*
X4203D01*
Y31890D01*
D02*
G37*
G36*
X-248Y18545D02*
X-198Y18543D01*
X-148Y18539D01*
X-100Y18534D01*
X-76Y18532D01*
X-56Y18528D01*
X-54D01*
X-50Y18526D01*
X-41D01*
X-32Y18524D01*
X-19Y18519D01*
X-4Y18517D01*
X31Y18506D01*
X70Y18493D01*
X112Y18476D01*
X153Y18456D01*
X192Y18432D01*
X195D01*
X197Y18430D01*
X210Y18419D01*
X227Y18404D01*
X251Y18382D01*
X275Y18356D01*
X304Y18321D01*
X330Y18284D01*
X354Y18238D01*
Y18236D01*
X356Y18232D01*
X360Y18225D01*
X365Y18216D01*
X369Y18205D01*
X373Y18190D01*
X386Y18157D01*
X397Y18116D01*
X408Y18070D01*
X415Y18018D01*
X417Y17963D01*
Y17961D01*
Y17952D01*
Y17939D01*
X415Y17920D01*
X412Y17898D01*
X408Y17874D01*
X404Y17846D01*
X397Y17813D01*
X389Y17780D01*
X378Y17745D01*
X365Y17710D01*
X347Y17673D01*
X330Y17636D01*
X308Y17599D01*
X282Y17564D01*
X253Y17529D01*
X251Y17527D01*
X245Y17523D01*
X236Y17514D01*
X221Y17501D01*
X203Y17488D01*
X179Y17473D01*
X151Y17458D01*
X118Y17442D01*
X79Y17425D01*
X38Y17410D01*
X-13Y17394D01*
X-65Y17381D01*
X-126Y17370D01*
X-191Y17362D01*
X-261Y17355D01*
X-340Y17353D01*
X-854D01*
Y16535D01*
X-1120D01*
Y18548D01*
X-292D01*
X-248Y18545D01*
D02*
G37*
G36*
X-2378D02*
X-2352D01*
X-2326Y18543D01*
X-2267Y18541D01*
X-2208Y18534D01*
X-2149Y18528D01*
X-2123Y18521D01*
X-2099Y18517D01*
X-2097D01*
X-2090Y18515D01*
X-2081Y18513D01*
X-2070Y18508D01*
X-2055Y18504D01*
X-2038Y18500D01*
X-1996Y18484D01*
X-1951Y18465D01*
X-1903Y18441D01*
X-1853Y18410D01*
X-1805Y18373D01*
X-1802Y18371D01*
X-1798Y18367D01*
X-1789Y18360D01*
X-1778Y18349D01*
X-1765Y18336D01*
X-1750Y18319D01*
X-1733Y18301D01*
X-1715Y18279D01*
X-1696Y18255D01*
X-1676Y18229D01*
X-1656Y18201D01*
X-1637Y18170D01*
X-1600Y18103D01*
X-1567Y18029D01*
Y18027D01*
X-1563Y18020D01*
X-1560Y18007D01*
X-1554Y17992D01*
X-1547Y17972D01*
X-1541Y17948D01*
X-1534Y17922D01*
X-1526Y17891D01*
X-1519Y17856D01*
X-1512Y17819D01*
X-1506Y17780D01*
X-1499Y17739D01*
X-1493Y17695D01*
X-1491Y17649D01*
X-1486Y17551D01*
Y17549D01*
Y17540D01*
Y17529D01*
Y17512D01*
X-1488Y17492D01*
Y17469D01*
X-1491Y17442D01*
X-1493Y17414D01*
X-1499Y17351D01*
X-1510Y17283D01*
X-1523Y17213D01*
X-1541Y17144D01*
Y17142D01*
X-1543Y17135D01*
X-1547Y17126D01*
X-1550Y17115D01*
X-1556Y17100D01*
X-1563Y17083D01*
X-1578Y17041D01*
X-1598Y16995D01*
X-1621Y16945D01*
X-1648Y16897D01*
X-1678Y16851D01*
Y16849D01*
X-1682Y16847D01*
X-1687Y16841D01*
X-1693Y16832D01*
X-1709Y16812D01*
X-1733Y16786D01*
X-1759Y16756D01*
X-1789Y16725D01*
X-1824Y16697D01*
X-1861Y16668D01*
X-1863D01*
X-1866Y16666D01*
X-1879Y16657D01*
X-1901Y16647D01*
X-1929Y16631D01*
X-1964Y16616D01*
X-2005Y16599D01*
X-2053Y16583D01*
X-2103Y16568D01*
X-2105D01*
X-2110Y16566D01*
X-2116D01*
X-2127Y16564D01*
X-2140Y16562D01*
X-2158Y16557D01*
X-2175Y16555D01*
X-2195Y16553D01*
X-2243Y16546D01*
X-2297Y16540D01*
X-2358Y16538D01*
X-2424Y16535D01*
X-3150D01*
Y18548D01*
X-2400D01*
X-2378Y18545D01*
D02*
G37*
G36*
X6306Y787D02*
X6049D01*
Y2472D01*
X5460Y787D01*
X5220D01*
X4640Y2501D01*
Y787D01*
X4383D01*
Y2799D01*
X4782D01*
X5259Y1374D01*
Y1372D01*
X5262Y1365D01*
X5266Y1354D01*
X5270Y1341D01*
X5275Y1326D01*
X5281Y1306D01*
X5297Y1263D01*
X5312Y1215D01*
X5327Y1165D01*
X5342Y1119D01*
X5349Y1097D01*
X5355Y1077D01*
Y1080D01*
X5358Y1082D01*
X5360Y1088D01*
X5362Y1097D01*
X5366Y1110D01*
X5371Y1123D01*
X5375Y1141D01*
X5381Y1158D01*
X5388Y1180D01*
X5397Y1204D01*
X5406Y1230D01*
X5414Y1261D01*
X5425Y1291D01*
X5436Y1326D01*
X5449Y1361D01*
X5462Y1400D01*
X5946Y2799D01*
X6306D01*
Y787D01*
D02*
G37*
G36*
X3134Y2797D02*
X3160D01*
X3186Y2795D01*
X3245Y2793D01*
X3304Y2787D01*
X3363Y2780D01*
X3389Y2773D01*
X3413Y2769D01*
X3415D01*
X3422Y2767D01*
X3430Y2765D01*
X3441Y2760D01*
X3457Y2756D01*
X3474Y2752D01*
X3515Y2736D01*
X3561Y2717D01*
X3609Y2693D01*
X3659Y2662D01*
X3707Y2625D01*
X3709Y2623D01*
X3714Y2619D01*
X3723Y2612D01*
X3733Y2601D01*
X3746Y2588D01*
X3762Y2571D01*
X3779Y2553D01*
X3797Y2531D01*
X3816Y2507D01*
X3836Y2481D01*
X3855Y2453D01*
X3875Y2422D01*
X3912Y2355D01*
X3945Y2281D01*
Y2279D01*
X3949Y2272D01*
X3951Y2259D01*
X3958Y2244D01*
X3965Y2224D01*
X3971Y2200D01*
X3978Y2174D01*
X3986Y2143D01*
X3993Y2108D01*
X3999Y2071D01*
X4006Y2032D01*
X4013Y1991D01*
X4019Y1947D01*
X4021Y1901D01*
X4025Y1803D01*
Y1801D01*
Y1792D01*
Y1781D01*
Y1764D01*
X4023Y1744D01*
Y1720D01*
X4021Y1694D01*
X4019Y1666D01*
X4013Y1603D01*
X4002Y1535D01*
X3988Y1465D01*
X3971Y1396D01*
Y1393D01*
X3969Y1387D01*
X3965Y1378D01*
X3962Y1367D01*
X3956Y1352D01*
X3949Y1335D01*
X3934Y1293D01*
X3914Y1247D01*
X3890Y1197D01*
X3864Y1149D01*
X3834Y1103D01*
Y1101D01*
X3829Y1099D01*
X3825Y1093D01*
X3818Y1084D01*
X3803Y1064D01*
X3779Y1038D01*
X3753Y1008D01*
X3723Y977D01*
X3688Y949D01*
X3651Y920D01*
X3648D01*
X3646Y918D01*
X3633Y910D01*
X3611Y899D01*
X3583Y883D01*
X3548Y868D01*
X3507Y851D01*
X3459Y835D01*
X3409Y820D01*
X3406D01*
X3402Y818D01*
X3396D01*
X3385Y816D01*
X3371Y814D01*
X3354Y809D01*
X3337Y807D01*
X3317Y805D01*
X3269Y798D01*
X3215Y792D01*
X3153Y790D01*
X3088Y787D01*
X2362D01*
Y2799D01*
X3112D01*
X3134Y2797D01*
D02*
G37*
G36*
X14166Y1895D02*
X14714D01*
Y1664D01*
X14166D01*
Y1112D01*
X13933D01*
Y1664D01*
X13386D01*
Y1895D01*
X13933D01*
Y2442D01*
X14166D01*
Y1895D01*
D02*
G37*
G36*
X16226Y2538D02*
X15422D01*
X15315Y1997D01*
X15317Y2000D01*
X15324Y2004D01*
X15333Y2008D01*
X15346Y2017D01*
X15363Y2026D01*
X15383Y2036D01*
X15405Y2050D01*
X15431Y2060D01*
X15457Y2071D01*
X15487Y2084D01*
X15551Y2104D01*
X15586Y2113D01*
X15620Y2119D01*
X15657Y2122D01*
X15695Y2124D01*
X15705D01*
X15721Y2122D01*
X15738D01*
X15760Y2117D01*
X15786Y2115D01*
X15816Y2108D01*
X15847Y2102D01*
X15882Y2091D01*
X15917Y2080D01*
X15954Y2065D01*
X15991Y2047D01*
X16028Y2026D01*
X16065Y2002D01*
X16102Y1973D01*
X16137Y1941D01*
X16139Y1938D01*
X16146Y1932D01*
X16154Y1921D01*
X16165Y1908D01*
X16181Y1891D01*
X16196Y1867D01*
X16211Y1843D01*
X16229Y1814D01*
X16246Y1781D01*
X16261Y1744D01*
X16279Y1707D01*
X16292Y1664D01*
X16303Y1620D01*
X16311Y1572D01*
X16318Y1522D01*
X16320Y1470D01*
Y1468D01*
Y1457D01*
Y1444D01*
X16318Y1424D01*
X16316Y1400D01*
X16311Y1374D01*
X16307Y1343D01*
X16300Y1308D01*
X16292Y1273D01*
X16281Y1234D01*
X16268Y1195D01*
X16252Y1156D01*
X16235Y1117D01*
X16213Y1075D01*
X16189Y1036D01*
X16161Y999D01*
X16159Y997D01*
X16152Y988D01*
X16141Y977D01*
X16126Y962D01*
X16106Y942D01*
X16082Y923D01*
X16054Y899D01*
X16021Y877D01*
X15987Y855D01*
X15947Y831D01*
X15904Y811D01*
X15856Y794D01*
X15806Y777D01*
X15751Y766D01*
X15695Y757D01*
X15633Y755D01*
X15607D01*
X15588Y757D01*
X15564Y759D01*
X15538Y763D01*
X15507Y768D01*
X15474Y774D01*
X15439Y781D01*
X15402Y792D01*
X15365Y805D01*
X15328Y820D01*
X15291Y838D01*
X15254Y857D01*
X15219Y881D01*
X15184Y907D01*
X15182Y910D01*
X15178Y914D01*
X15169Y923D01*
X15158Y936D01*
X15143Y951D01*
X15128Y968D01*
X15112Y990D01*
X15095Y1016D01*
X15078Y1043D01*
X15060Y1073D01*
X15045Y1108D01*
X15030Y1143D01*
X15014Y1182D01*
X15003Y1223D01*
X14995Y1269D01*
X14988Y1315D01*
X15248Y1335D01*
Y1332D01*
X15250Y1326D01*
X15252Y1317D01*
X15254Y1304D01*
X15256Y1289D01*
X15263Y1269D01*
X15274Y1228D01*
X15291Y1182D01*
X15315Y1134D01*
X15344Y1090D01*
X15361Y1071D01*
X15378Y1051D01*
X15381D01*
X15383Y1047D01*
X15389Y1043D01*
X15398Y1036D01*
X15420Y1021D01*
X15450Y1005D01*
X15487Y988D01*
X15531Y973D01*
X15579Y962D01*
X15605Y960D01*
X15633Y957D01*
X15651D01*
X15664Y960D01*
X15679Y962D01*
X15697Y964D01*
X15738Y975D01*
X15786Y990D01*
X15810Y1001D01*
X15836Y1014D01*
X15862Y1029D01*
X15886Y1047D01*
X15910Y1066D01*
X15934Y1090D01*
X15936Y1093D01*
X15939Y1097D01*
X15945Y1103D01*
X15954Y1114D01*
X15963Y1130D01*
X15973Y1145D01*
X15984Y1165D01*
X15998Y1186D01*
X16008Y1210D01*
X16019Y1237D01*
X16030Y1267D01*
X16039Y1297D01*
X16048Y1332D01*
X16054Y1369D01*
X16056Y1407D01*
X16059Y1448D01*
Y1450D01*
Y1457D01*
Y1468D01*
X16056Y1483D01*
X16054Y1500D01*
X16052Y1522D01*
X16048Y1544D01*
X16043Y1570D01*
X16030Y1622D01*
X16008Y1679D01*
X15995Y1705D01*
X15978Y1731D01*
X15960Y1757D01*
X15939Y1781D01*
X15936Y1784D01*
X15934Y1786D01*
X15925Y1792D01*
X15917Y1801D01*
X15906Y1810D01*
X15891Y1821D01*
X15875Y1832D01*
X15856Y1845D01*
X15834Y1856D01*
X15812Y1867D01*
X15758Y1886D01*
X15729Y1895D01*
X15697Y1901D01*
X15664Y1904D01*
X15629Y1906D01*
X15609D01*
X15586Y1904D01*
X15557Y1899D01*
X15522Y1893D01*
X15485Y1882D01*
X15448Y1869D01*
X15411Y1849D01*
X15407Y1847D01*
X15396Y1840D01*
X15378Y1827D01*
X15357Y1812D01*
X15335Y1790D01*
X15309Y1766D01*
X15285Y1738D01*
X15263Y1707D01*
X15032Y1740D01*
X15226Y2773D01*
X16226D01*
Y2538D01*
D02*
G37*
%LPC*%
G36*
X20767Y18310D02*
X20326D01*
Y17702D01*
X20804D01*
X20821Y17704D01*
X20858D01*
X20900Y17706D01*
X20943Y17710D01*
X20983Y17717D01*
X21000Y17719D01*
X21015Y17724D01*
X21017D01*
X21020Y17726D01*
X21033Y17730D01*
X21050Y17737D01*
X21072Y17748D01*
X21096Y17761D01*
X21122Y17778D01*
X21146Y17800D01*
X21168Y17824D01*
X21170Y17828D01*
X21177Y17837D01*
X21185Y17852D01*
X21194Y17872D01*
X21203Y17898D01*
X21212Y17929D01*
X21218Y17961D01*
X21220Y18000D01*
Y18003D01*
Y18005D01*
Y18018D01*
X21218Y18035D01*
X21214Y18059D01*
X21207Y18088D01*
X21199Y18118D01*
X21188Y18149D01*
X21170Y18177D01*
X21168Y18181D01*
X21161Y18190D01*
X21150Y18203D01*
X21135Y18218D01*
X21116Y18236D01*
X21092Y18253D01*
X21066Y18269D01*
X21033Y18282D01*
X21028Y18284D01*
X21024D01*
X21015Y18286D01*
X21007Y18288D01*
X20994Y18290D01*
X20978Y18293D01*
X20963Y18297D01*
X20943Y18299D01*
X20920Y18301D01*
X20896Y18303D01*
X20867Y18306D01*
X20837Y18308D01*
X20804D01*
X20767Y18310D01*
D02*
G37*
G36*
X20791Y17464D02*
X20326D01*
Y16773D01*
X20872D01*
X20900Y16775D01*
X20928D01*
X20959Y16777D01*
X20987Y16780D01*
X21009Y16782D01*
X21013D01*
X21024Y16784D01*
X21042Y16788D01*
X21063Y16795D01*
X21087Y16801D01*
X21111Y16812D01*
X21137Y16823D01*
X21161Y16836D01*
X21164Y16838D01*
X21172Y16843D01*
X21183Y16851D01*
X21199Y16865D01*
X21214Y16880D01*
X21231Y16899D01*
X21249Y16921D01*
X21264Y16948D01*
X21266Y16952D01*
X21270Y16961D01*
X21277Y16976D01*
X21286Y16998D01*
X21292Y17022D01*
X21299Y17050D01*
X21303Y17083D01*
X21305Y17118D01*
Y17120D01*
Y17122D01*
Y17128D01*
Y17137D01*
X21303Y17157D01*
X21299Y17185D01*
X21290Y17216D01*
X21281Y17248D01*
X21266Y17281D01*
X21246Y17314D01*
X21244Y17318D01*
X21236Y17327D01*
X21223Y17342D01*
X21205Y17359D01*
X21181Y17379D01*
X21153Y17397D01*
X21122Y17414D01*
X21085Y17429D01*
X21083D01*
X21081Y17431D01*
X21074Y17434D01*
X21066Y17436D01*
X21055Y17438D01*
X21044Y17440D01*
X21028Y17445D01*
X21011Y17447D01*
X20989Y17451D01*
X20967Y17453D01*
X20943Y17455D01*
X20917Y17460D01*
X20858Y17462D01*
X20791Y17464D01*
D02*
G37*
G36*
X18004Y33664D02*
X17540D01*
Y32127D01*
X18002D01*
X18019Y32130D01*
X18039D01*
X18082Y32132D01*
X18133Y32136D01*
X18185Y32143D01*
X18235Y32151D01*
X18281Y32162D01*
X18283D01*
X18285Y32164D01*
X18292Y32167D01*
X18300Y32169D01*
X18320Y32177D01*
X18346Y32188D01*
X18374Y32204D01*
X18405Y32221D01*
X18436Y32243D01*
X18462Y32267D01*
X18464Y32269D01*
X18466Y32271D01*
X18477Y32284D01*
X18495Y32306D01*
X18516Y32335D01*
X18538Y32372D01*
X18562Y32415D01*
X18586Y32465D01*
X18608Y32522D01*
Y32524D01*
X18610Y32528D01*
X18612Y32537D01*
X18617Y32550D01*
X18621Y32566D01*
X18625Y32585D01*
X18630Y32607D01*
X18636Y32631D01*
X18641Y32657D01*
X18645Y32688D01*
X18649Y32718D01*
X18654Y32753D01*
X18660Y32827D01*
X18662Y32910D01*
Y32914D01*
Y32923D01*
Y32941D01*
X18660Y32962D01*
Y32989D01*
X18658Y33019D01*
X18654Y33052D01*
X18649Y33089D01*
X18636Y33167D01*
X18619Y33248D01*
X18593Y33324D01*
X18575Y33361D01*
X18558Y33394D01*
X18555Y33396D01*
X18553Y33400D01*
X18547Y33409D01*
X18538Y33422D01*
X18529Y33435D01*
X18516Y33451D01*
X18488Y33485D01*
X18451Y33525D01*
X18407Y33562D01*
X18359Y33597D01*
X18333Y33610D01*
X18305Y33623D01*
X18303D01*
X18300Y33625D01*
X18294Y33627D01*
X18285Y33629D01*
X18272Y33632D01*
X18259Y33636D01*
X18242Y33640D01*
X18222Y33645D01*
X18200Y33647D01*
X18174Y33651D01*
X18146Y33656D01*
X18115Y33658D01*
X18080Y33660D01*
X18043Y33662D01*
X18004Y33664D01*
D02*
G37*
G36*
X5402D02*
X4938D01*
Y32127D01*
X5400D01*
X5417Y32130D01*
X5437D01*
X5480Y32132D01*
X5531Y32136D01*
X5583Y32143D01*
X5633Y32151D01*
X5679Y32162D01*
X5681D01*
X5683Y32164D01*
X5690Y32167D01*
X5698Y32169D01*
X5718Y32177D01*
X5744Y32188D01*
X5773Y32204D01*
X5803Y32221D01*
X5834Y32243D01*
X5860Y32267D01*
X5862Y32269D01*
X5864Y32271D01*
X5875Y32284D01*
X5892Y32306D01*
X5914Y32335D01*
X5936Y32372D01*
X5960Y32415D01*
X5984Y32465D01*
X6006Y32522D01*
Y32524D01*
X6008Y32528D01*
X6010Y32537D01*
X6015Y32550D01*
X6019Y32566D01*
X6023Y32585D01*
X6028Y32607D01*
X6034Y32631D01*
X6038Y32657D01*
X6043Y32688D01*
X6047Y32718D01*
X6052Y32753D01*
X6058Y32827D01*
X6060Y32910D01*
Y32914D01*
Y32923D01*
Y32941D01*
X6058Y32962D01*
Y32989D01*
X6056Y33019D01*
X6052Y33052D01*
X6047Y33089D01*
X6034Y33167D01*
X6017Y33248D01*
X5991Y33324D01*
X5973Y33361D01*
X5956Y33394D01*
X5954Y33396D01*
X5951Y33400D01*
X5945Y33409D01*
X5936Y33422D01*
X5927Y33435D01*
X5914Y33451D01*
X5886Y33485D01*
X5849Y33525D01*
X5805Y33562D01*
X5757Y33597D01*
X5731Y33610D01*
X5703Y33623D01*
X5701D01*
X5698Y33625D01*
X5692Y33627D01*
X5683Y33629D01*
X5670Y33632D01*
X5657Y33636D01*
X5640Y33640D01*
X5620Y33645D01*
X5598Y33647D01*
X5572Y33651D01*
X5544Y33656D01*
X5513Y33658D01*
X5478Y33660D01*
X5441Y33662D01*
X5402Y33664D01*
D02*
G37*
G36*
X-276Y18310D02*
X-854D01*
Y17591D01*
X-311D01*
X-294Y17593D01*
X-272D01*
X-248Y17595D01*
X-220Y17599D01*
X-191Y17604D01*
X-130Y17615D01*
X-69Y17632D01*
X-41Y17643D01*
X-15Y17656D01*
X11Y17669D01*
X33Y17686D01*
X35Y17689D01*
X38Y17691D01*
X44Y17697D01*
X51Y17704D01*
X68Y17726D01*
X88Y17756D01*
X107Y17796D01*
X125Y17841D01*
X138Y17896D01*
X140Y17924D01*
X142Y17957D01*
Y17959D01*
Y17963D01*
Y17970D01*
Y17979D01*
X138Y18003D01*
X134Y18031D01*
X127Y18066D01*
X114Y18101D01*
X99Y18138D01*
X77Y18173D01*
X75Y18177D01*
X66Y18188D01*
X51Y18203D01*
X33Y18221D01*
X7Y18240D01*
X-21Y18260D01*
X-54Y18277D01*
X-91Y18290D01*
X-93D01*
X-104Y18293D01*
X-122Y18297D01*
X-148Y18301D01*
X-163D01*
X-180Y18303D01*
X-202Y18306D01*
X-224Y18308D01*
X-250D01*
X-276Y18310D01*
D02*
G37*
G36*
X-2419D02*
X-2884D01*
Y16773D01*
X-2421D01*
X-2404Y16775D01*
X-2384D01*
X-2341Y16777D01*
X-2291Y16782D01*
X-2238Y16788D01*
X-2188Y16797D01*
X-2142Y16808D01*
X-2140D01*
X-2138Y16810D01*
X-2132Y16812D01*
X-2123Y16815D01*
X-2103Y16823D01*
X-2077Y16834D01*
X-2049Y16849D01*
X-2018Y16867D01*
X-1988Y16889D01*
X-1962Y16913D01*
X-1959Y16915D01*
X-1957Y16917D01*
X-1946Y16930D01*
X-1929Y16952D01*
X-1907Y16980D01*
X-1885Y17017D01*
X-1861Y17061D01*
X-1837Y17111D01*
X-1815Y17168D01*
Y17170D01*
X-1813Y17174D01*
X-1811Y17183D01*
X-1807Y17196D01*
X-1802Y17211D01*
X-1798Y17231D01*
X-1794Y17253D01*
X-1787Y17277D01*
X-1783Y17303D01*
X-1778Y17333D01*
X-1774Y17364D01*
X-1770Y17399D01*
X-1763Y17473D01*
X-1761Y17556D01*
Y17560D01*
Y17569D01*
Y17586D01*
X-1763Y17608D01*
Y17634D01*
X-1765Y17665D01*
X-1770Y17697D01*
X-1774Y17734D01*
X-1787Y17813D01*
X-1805Y17894D01*
X-1831Y17970D01*
X-1848Y18007D01*
X-1866Y18040D01*
X-1868Y18042D01*
X-1870Y18046D01*
X-1877Y18055D01*
X-1885Y18068D01*
X-1894Y18081D01*
X-1907Y18096D01*
X-1935Y18131D01*
X-1972Y18170D01*
X-2016Y18207D01*
X-2064Y18242D01*
X-2090Y18255D01*
X-2118Y18269D01*
X-2121D01*
X-2123Y18271D01*
X-2129Y18273D01*
X-2138Y18275D01*
X-2151Y18277D01*
X-2164Y18282D01*
X-2182Y18286D01*
X-2201Y18290D01*
X-2223Y18293D01*
X-2249Y18297D01*
X-2278Y18301D01*
X-2308Y18303D01*
X-2343Y18306D01*
X-2380Y18308D01*
X-2419Y18310D01*
D02*
G37*
G36*
X3093Y2562D02*
X2628D01*
Y1025D01*
X3090D01*
X3108Y1027D01*
X3127D01*
X3171Y1029D01*
X3221Y1034D01*
X3273Y1040D01*
X3324Y1049D01*
X3369Y1060D01*
X3371D01*
X3374Y1062D01*
X3380Y1064D01*
X3389Y1066D01*
X3409Y1075D01*
X3435Y1086D01*
X3463Y1101D01*
X3494Y1119D01*
X3524Y1141D01*
X3550Y1165D01*
X3553Y1167D01*
X3555Y1169D01*
X3566Y1182D01*
X3583Y1204D01*
X3605Y1232D01*
X3627Y1269D01*
X3651Y1313D01*
X3675Y1363D01*
X3696Y1420D01*
Y1422D01*
X3698Y1426D01*
X3701Y1435D01*
X3705Y1448D01*
X3709Y1463D01*
X3714Y1483D01*
X3718Y1505D01*
X3725Y1529D01*
X3729Y1555D01*
X3733Y1585D01*
X3738Y1616D01*
X3742Y1651D01*
X3749Y1725D01*
X3751Y1808D01*
Y1812D01*
Y1821D01*
Y1838D01*
X3749Y1860D01*
Y1886D01*
X3746Y1917D01*
X3742Y1949D01*
X3738Y1986D01*
X3725Y2065D01*
X3707Y2145D01*
X3681Y2222D01*
X3664Y2259D01*
X3646Y2292D01*
X3644Y2294D01*
X3642Y2298D01*
X3635Y2307D01*
X3627Y2320D01*
X3618Y2333D01*
X3605Y2348D01*
X3576Y2383D01*
X3539Y2422D01*
X3496Y2459D01*
X3448Y2494D01*
X3422Y2507D01*
X3393Y2520D01*
X3391D01*
X3389Y2523D01*
X3382Y2525D01*
X3374Y2527D01*
X3361Y2529D01*
X3348Y2534D01*
X3330Y2538D01*
X3311Y2542D01*
X3289Y2544D01*
X3263Y2549D01*
X3234Y2553D01*
X3204Y2555D01*
X3169Y2558D01*
X3132Y2560D01*
X3093Y2562D01*
D02*
G37*
%LPD*%
D10*
X23228Y1613D02*
X30665D01*
X23228D02*
Y33031D01*
X30665D01*
M02*
