G04*
G04 #@! TF.GenerationSoftware,Altium Limited,Altium Designer,18.1.2 (67)*
G04*
G04 Layer_Physical_Order=1*
G04 Layer_Color=255*
%FSLAX25Y25*%
%MOIN*%
G70*
G01*
G75*
G04:AMPARAMS|DCode=11|XSize=54.33mil|YSize=15.75mil|CornerRadius=0.39mil|HoleSize=0mil|Usage=FLASHONLY|Rotation=0.000|XOffset=0mil|YOffset=0mil|HoleType=Round|Shape=RoundedRectangle|*
%AMROUNDEDRECTD11*
21,1,0.05433,0.01496,0,0,0.0*
21,1,0.05354,0.01575,0,0,0.0*
1,1,0.00079,0.02677,-0.00748*
1,1,0.00079,-0.02677,-0.00748*
1,1,0.00079,-0.02677,0.00748*
1,1,0.00079,0.02677,0.00748*
%
%ADD11ROUNDEDRECTD11*%
G04:AMPARAMS|DCode=12|XSize=82.68mil|YSize=59.06mil|CornerRadius=1.48mil|HoleSize=0mil|Usage=FLASHONLY|Rotation=180.000|XOffset=0mil|YOffset=0mil|HoleType=Round|Shape=RoundedRectangle|*
%AMROUNDEDRECTD12*
21,1,0.08268,0.05610,0,0,180.0*
21,1,0.07972,0.05906,0,0,180.0*
1,1,0.00295,-0.03986,0.02805*
1,1,0.00295,0.03986,0.02805*
1,1,0.00295,0.03986,-0.02805*
1,1,0.00295,-0.03986,-0.02805*
%
%ADD12ROUNDEDRECTD12*%
G04:AMPARAMS|DCode=13|XSize=94.49mil|YSize=74.8mil|CornerRadius=1.87mil|HoleSize=0mil|Usage=FLASHONLY|Rotation=90.000|XOffset=0mil|YOffset=0mil|HoleType=Round|Shape=RoundedRectangle|*
%AMROUNDEDRECTD13*
21,1,0.09449,0.07106,0,0,90.0*
21,1,0.09075,0.07480,0,0,90.0*
1,1,0.00374,0.03553,0.04537*
1,1,0.00374,0.03553,-0.04537*
1,1,0.00374,-0.03553,-0.04537*
1,1,0.00374,-0.03553,0.04537*
%
%ADD13ROUNDEDRECTD13*%
G04:AMPARAMS|DCode=14|XSize=45.28mil|YSize=74.8mil|CornerRadius=1.13mil|HoleSize=0mil|Usage=FLASHONLY|Rotation=90.000|XOffset=0mil|YOffset=0mil|HoleType=Round|Shape=RoundedRectangle|*
%AMROUNDEDRECTD14*
21,1,0.04528,0.07254,0,0,90.0*
21,1,0.04301,0.07480,0,0,90.0*
1,1,0.00226,0.03627,0.02151*
1,1,0.00226,0.03627,-0.02151*
1,1,0.00226,-0.03627,-0.02151*
1,1,0.00226,-0.03627,0.02151*
%
%ADD14ROUNDEDRECTD14*%
%ADD21C,0.03937*%
%ADD22C,0.01181*%
%ADD23C,0.15748*%
%ADD24C,0.07874*%
G36*
X33052Y31131D02*
X32569Y30727D01*
X29764D01*
Y26969D01*
X28583D01*
Y25787D01*
X23643D01*
Y24163D01*
X23716Y23799D01*
X23808Y23660D01*
X23709Y23512D01*
X23645Y23189D01*
Y21693D01*
X23216Y21287D01*
X12834D01*
X9363Y24757D01*
X9768Y25735D01*
X9930Y26969D01*
X9768Y28202D01*
X9292Y29351D01*
X8535Y30338D01*
X7548Y31095D01*
X6399Y31571D01*
X5165Y31734D01*
X3932Y31571D01*
X2783Y31095D01*
X1796Y30338D01*
X1039Y29351D01*
X563Y28202D01*
X400Y26969D01*
X563Y25735D01*
X1039Y24586D01*
X1796Y23599D01*
X2783Y22842D01*
X3838Y22405D01*
X3879Y22195D01*
Y22097D01*
X3838Y21887D01*
X2783Y21450D01*
X1796Y20692D01*
X1039Y19705D01*
X563Y18556D01*
X400Y17323D01*
X563Y16090D01*
X1039Y14940D01*
X1796Y13953D01*
X2783Y13196D01*
X3838Y12759D01*
X3879Y12549D01*
Y12451D01*
X3838Y12241D01*
X2783Y11804D01*
X1796Y11047D01*
X1039Y10060D01*
X563Y8911D01*
X400Y7677D01*
X563Y6444D01*
X1039Y5295D01*
X1796Y4308D01*
X2783Y3550D01*
X3932Y3074D01*
X5165Y2912D01*
X6399Y3074D01*
X7548Y3550D01*
X8535Y4308D01*
X9292Y5295D01*
X9768Y6444D01*
X9930Y7677D01*
X9768Y8911D01*
X9363Y9888D01*
X12834Y13359D01*
X18507D01*
X18714Y12859D01*
X17731Y11875D01*
X16753Y12280D01*
X15520Y12442D01*
X14286Y12280D01*
X13137Y11804D01*
X12150Y11047D01*
X11393Y10060D01*
X10917Y8911D01*
X10755Y7677D01*
X10917Y6444D01*
X11393Y5295D01*
X12150Y4308D01*
X13137Y3550D01*
X14286Y3074D01*
X15520Y2912D01*
X16753Y3074D01*
X17902Y3550D01*
X18889Y4308D01*
X19646Y5295D01*
X20122Y6444D01*
X20285Y7677D01*
X20122Y8911D01*
X19717Y9888D01*
X20629Y10800D01*
X23382D01*
X23643Y10482D01*
Y8858D01*
X28583D01*
Y7677D01*
X29764D01*
Y3919D01*
X32569D01*
X33052Y3515D01*
Y1529D01*
X-51693Y1529D01*
X-52035Y1529D01*
X-52705Y1663D01*
X-53337Y1924D01*
X-53905Y2304D01*
X-54389Y2788D01*
X-54769Y3356D01*
X-55030Y3988D01*
X-55164Y4658D01*
Y5000D01*
Y29646D01*
Y29987D01*
X-55030Y30658D01*
X-54769Y31290D01*
X-54389Y31858D01*
X-53905Y32342D01*
X-53337Y32721D01*
X-52705Y32983D01*
X-52035Y33116D01*
X-51693Y33116D01*
X33052Y33116D01*
Y31131D01*
D02*
G37*
G36*
X32815Y23168D02*
X33095Y22835D01*
X33053Y22623D01*
Y21654D01*
X37598D01*
Y19291D01*
X33053D01*
Y18322D01*
X33123Y17970D01*
X33322Y17673D01*
X33424Y17604D01*
Y17041D01*
X33322Y16973D01*
X33123Y16675D01*
X33053Y16324D01*
Y15354D01*
X37598D01*
Y12992D01*
X33053D01*
Y12023D01*
X33095Y11811D01*
X32815Y11478D01*
X32704Y11409D01*
X32569Y11436D01*
X30703D01*
X30685Y11457D01*
Y12953D01*
X30621Y13275D01*
X30482Y13484D01*
X30621Y13693D01*
X30685Y14016D01*
Y15512D01*
X30621Y15834D01*
X30482Y16043D01*
X30621Y16252D01*
X30685Y16575D01*
Y18071D01*
X30621Y18394D01*
X30482Y18602D01*
X30621Y18811D01*
X30685Y19134D01*
Y20630D01*
X30621Y20953D01*
X30482Y21161D01*
X30621Y21370D01*
X30685Y21693D01*
Y23189D01*
X30703Y23210D01*
X32569D01*
X32704Y23237D01*
X32815Y23168D01*
D02*
G37*
%LPC*%
G36*
X15520Y31734D02*
X14286Y31571D01*
X13137Y31095D01*
X13095Y31063D01*
X15520Y28639D01*
X17944Y31063D01*
X17902Y31095D01*
X16753Y31571D01*
X15520Y31734D01*
D02*
G37*
G36*
X27402Y30727D02*
X24596D01*
X24232Y30654D01*
X23922Y30448D01*
X23716Y30138D01*
X23643Y29774D01*
Y28150D01*
X27402D01*
Y30727D01*
D02*
G37*
G36*
X19614Y29393D02*
X17190Y26969D01*
X19614Y24544D01*
X19646Y24586D01*
X20122Y25735D01*
X20285Y26969D01*
X20122Y28202D01*
X19646Y29351D01*
X19614Y29393D01*
D02*
G37*
G36*
X11425Y29393D02*
X11393Y29351D01*
X10917Y28202D01*
X10755Y26969D01*
X10917Y25735D01*
X11393Y24586D01*
X11425Y24544D01*
X13849Y26969D01*
X11425Y29393D01*
D02*
G37*
G36*
X15520Y25298D02*
X13095Y22874D01*
X13137Y22842D01*
X14286Y22366D01*
X15520Y22203D01*
X16753Y22366D01*
X17902Y22842D01*
X17944Y22874D01*
X15520Y25298D01*
D02*
G37*
G36*
X-14567Y26026D02*
X-16265Y25859D01*
X-17898Y25364D01*
X-19402Y24559D01*
X-20721Y23477D01*
X-21803Y22158D01*
X-22608Y20653D01*
X-23103Y19021D01*
X-23270Y17323D01*
X-23103Y15625D01*
X-22608Y13992D01*
X-21803Y12488D01*
X-20721Y11169D01*
X-19402Y10086D01*
X-17898Y9282D01*
X-16265Y8787D01*
X-14567Y8619D01*
X-12869Y8787D01*
X-11236Y9282D01*
X-9732Y10086D01*
X-8413Y11169D01*
X-7330Y12488D01*
X-6526Y13992D01*
X-6031Y15625D01*
X-5864Y17323D01*
X-6031Y19021D01*
X-6526Y20653D01*
X-7330Y22158D01*
X-8413Y23477D01*
X-9732Y24559D01*
X-11236Y25364D01*
X-12869Y25859D01*
X-14567Y26026D01*
D02*
G37*
G36*
X-40157D02*
X-41855Y25859D01*
X-43488Y25364D01*
X-44993Y24559D01*
X-46312Y23477D01*
X-47394Y22158D01*
X-48198Y20653D01*
X-48694Y19021D01*
X-48861Y17323D01*
X-48694Y15625D01*
X-48198Y13992D01*
X-47394Y12488D01*
X-46312Y11169D01*
X-44993Y10086D01*
X-43488Y9282D01*
X-41855Y8787D01*
X-40157Y8619D01*
X-38460Y8787D01*
X-36827Y9282D01*
X-35322Y10086D01*
X-34003Y11169D01*
X-32921Y12488D01*
X-32117Y13992D01*
X-31621Y15625D01*
X-31454Y17323D01*
X-31621Y19021D01*
X-32117Y20653D01*
X-32921Y22158D01*
X-34003Y23477D01*
X-35322Y24559D01*
X-36827Y25364D01*
X-38460Y25859D01*
X-40157Y26026D01*
D02*
G37*
G36*
X27402Y6496D02*
X23643D01*
Y4872D01*
X23716Y4507D01*
X23922Y4198D01*
X24232Y3991D01*
X24596Y3919D01*
X27402D01*
Y6496D01*
D02*
G37*
%LPD*%
D11*
X27165Y12205D02*
D03*
Y14764D02*
D03*
X27165Y17323D02*
D03*
X27165Y19882D02*
D03*
Y22441D02*
D03*
D12*
X28583Y7677D02*
D03*
Y26969D02*
D03*
D13*
X37598Y28740D02*
D03*
Y5906D02*
D03*
D14*
Y20472D02*
D03*
Y14173D02*
D03*
D21*
X28583Y26969D02*
X37598D01*
X28583Y7677D02*
X37598D01*
Y26969D02*
Y28740D01*
Y20472D02*
Y26969D01*
Y14173D02*
Y20472D01*
Y7677D02*
Y14173D01*
Y5906D02*
Y7677D01*
D22*
X15520D02*
X20047Y12205D01*
X27165D01*
X5165Y7677D02*
X12252Y14764D01*
X27165D01*
X5165Y17323D02*
X27165D01*
X5165Y26969D02*
X12252Y19882D01*
X27165D01*
X15520Y26969D02*
X20047Y22441D01*
X27165D01*
D23*
X-40157Y17323D02*
D03*
X-14567D02*
D03*
D24*
X5165D02*
D03*
X15520Y7677D02*
D03*
X5165D02*
D03*
Y26969D02*
D03*
X15520D02*
D03*
M02*
